<svg xmlns="http://www.w3.org/2000/svg" viewBox="0 0 2048 2048"><defs><style>.cls-1{fill:#5790c1;}</style></defs><title>logo</title><g id="Слой_2" data-name="Слой 2"><polygon class="cls-1" points="1381.34 920.85 1381.34 1333.48 1202.67 1436.63 1202.67 1230.32 1202.66 1230.32 1024 1333.48 845.33 1230.32 845.32 1230.32 845.32 1436.63 666.66 1333.48 666.66 920.85 845.32 1024.01 1024 1127.16 1202.67 1024.01 1381.34 920.85"/><polygon class="cls-1" points="1202.67 714.55 1202.67 920.85 1113.34 972.43 1024.01 1024.01 934.67 972.43 845.33 920.85 845.33 714.55 934.67 766.11 964.44 714.54 979.34 688.74 1024 611.39 1068.66 688.74 1083.57 714.54 1113.34 766.11 1202.67 714.55"/></g></svg>