<?xml version="1.0" encoding="utf-8"?>
<!-- Generator: Adobe Illustrator 23.0.5, SVG Export Plug-In . SVG Version: 6.00 Build 0)  -->
<svg version="1.1" id="Слой_1" xmlns="http://www.w3.org/2000/svg" xmlns:xlink="http://www.w3.org/1999/xlink" x="0px" y="0px"
	 viewBox="0 0 2048 2048" style="enable-background:new 0 0 2048 2048;" xml:space="preserve">
<style type="text/css">
	.st0{fill:#5790C1;}
</style>
<title>logo</title>
<g>
	<path class="st0" d="M1024,180L293.1,602v844l730.9,422l730.9-422V602L1024,180z M1024,1792.8l-665.8-384.4l0,0V639.6l0,0
		L1024,255.2l665.8,384.4v768.8L1024,1792.8z"/>
	<polygon class="st0" points="1381.3,920.8 1381.3,1333.5 1202.7,1436.6 1202.7,1436.6 1202.7,1436.6 1202.7,1230.3 1202.7,1230.3 
		1024,1333.5 845.3,1230.3 845.3,1230.3 845.3,1436.6 666.7,1333.5 666.7,920.8 845.3,1024 1024,1127.2 1202.7,1024 1202.7,1024 	
		"/>
	<polygon class="st0" points="1202.7,714.5 1202.7,920.8 1113.3,972.4 1024,1024 934.7,972.4 845.3,920.8 845.3,714.5 934.7,766.1 
		964.4,714.5 979.3,688.7 1024,611.4 1068.7,688.7 1083.6,714.5 1113.3,766.1 	"/>
</g>
</svg>
