<svg xmlns="http://www.w3.org/2000/svg" viewBox="0 0 2048 2048"><defs><style>.cls-1{fill:#5790c1;}</style></defs><title>logo</title><g id="Слой_2" data-name="Слой 2"><path class="cls-1" d="M1024,180,293.06,602v844L1024,1868l730.94-422V602Zm665.82,1228.43L1024,1792.81l-665.82-384.4V639.59L1024,255.18l665.81,384.41Z"/><path d="M1024,255.18,358.19,639.59v768.82L1024,1792.81l665.81-384.4V639.59Zm0,1078.29L845.33,1230.31h0v206.31L666.66,1333.47V920.84L845.32,1024,1024,1127.15ZM934.67,972.42l-89.34-51.58V714.54l89.34,51.56,29.77-51.57,14.9-25.8L1024,611.38l44.66,77.35,14.91,25.8,29.77,51.57,89.33-51.56v206.3l-89.33,51.58L1024,1024Zm446.68,361.05-178.67,103.15V1230.31h0L1024,1333.47V1127.15L1202.68,1024l178.67-103.16Z"/><polygon class="cls-1" points="1381.34 920.84 1381.34 1333.47 1202.67 1436.62 1202.67 1230.31 1202.66 1230.31 1024 1333.47 845.33 1230.31 845.32 1230.31 845.32 1436.62 666.66 1333.47 666.66 920.84 845.32 1024 1024 1127.15 1202.67 1024 1381.34 920.84"/><polygon class="cls-1" points="1202.67 714.54 1202.67 920.84 1113.34 972.42 1024.01 1024 934.67 972.42 845.33 920.84 845.33 714.54 934.67 766.1 964.44 714.53 979.34 688.73 1024 611.38 1068.66 688.73 1083.57 714.53 1113.34 766.1 1202.67 714.54"/></g></svg>