<?xml version="1.0" encoding="utf-8"?>
<!-- Generator: Adobe Illustrator 23.0.5, SVG Export Plug-In . SVG Version: 6.00 Build 0)  -->
<svg version="1.1" id="Слой_1" xmlns="http://www.w3.org/2000/svg" xmlns:xlink="http://www.w3.org/1999/xlink" x="0px" y="0px"
	 viewBox="0 0 1920 1080" style="enable-background:new 0 0 1920 1080;" xml:space="preserve">
<style type="text/css">
	.st0{fill:#5082B0;}
	.st1{fill:#5790C1;}
	.st2{fill:#4A79A3;}
	.st3{fill:#426D91;}
</style>
<title>site_wallpaper</title>
<g>
	<polygon class="st0" points="1092.5,769.6 1074.5,800.8 774.5,800.8 759.3,774.5 724.6,714.5 623.9,540 641.4,509.8 658.9,540 
		671.3,561.5 742.1,684.2 776.8,744.3 791.3,769.6 	"/>
	<polygon class="st1" points="1110.6,800.8 1093.1,831.1 792,831.1 774.5,800.8 1074.5,800.8 1092.5,769.6 1093.4,771 	"/>
	<polygon class="st1" points="1243.1,571.3 1177.9,684.2 1159.8,653 1159.8,652.9 1225.1,540 	"/>
	<polygon class="st0" points="1110.6,800.8 1128.1,831.1 1093.1,831.1 	"/>
	<polygon class="st1" points="1296.1,540 1278.6,570.3 1261.2,540 1245.7,513.2 1177.9,395.8 1143.3,335.7 1128.6,310.4 
		827.5,310.4 827.5,310.4 845.5,279.2 1145.5,279.2 1160.7,305.5 1195.4,365.5 	"/>
	<polygon class="st0" points="1145.5,279.2 845.5,279.2 827.5,310.4 809.4,279.2 826.9,248.9 1128.1,248.9 	"/>
	<polygon class="st0" points="760.1,427 694.9,540 676.9,508.8 742.1,395.8 	"/>
	<polygon class="st1" points="827.5,769.6 791.3,769.6 776.8,744.3 742.1,684.2 671.3,561.5 658.9,540 641.4,509.8 724.7,365.5 
		742.1,395.8 676.9,508.8 694.9,540 705.5,558.3 760.1,653 794.8,713 	"/>
	<polygon class="st1" points="826.9,248.9 809.4,279.2 792,248.9 	"/>
	<polygon class="st2" points="792,831.1 759.3,887.6 694,887.6 726.7,831.1 759.3,774.5 774.5,800.8 	"/>
	<polygon class="st2" points="927.4,596.5 892.7,656.6 827.5,769.6 794.8,713 860,600.1 825.3,540 797.6,491.9 760.1,427 
		742.1,395.8 724.7,365.5 692,309 761.3,309 776.8,335.7 794.8,367 867,492 894.7,540 	"/>
	<polygon class="st3" points="960,540 939.1,576.1 927.4,596.5 894.7,540 867,492 794.8,367 776.8,335.7 761.3,309 425.3,309 
		459.9,248.9 792,248.9 809.4,279.2 827.5,310.4 827.5,310.4 827.5,310.4 	"/>
	<polygon class="st2" points="792,248.9 459.9,248.9 425.3,309 408.5,338 291.9,540 257.3,479.9 371.7,281.8 390.6,248.9 
		423.3,192.4 759.3,192.4 780.2,228.5 	"/>
	<polygon class="st3" points="358,192.4 423.2,192.4 390.6,248.9 371.6,281.8 257.3,479.9 291.9,540 320,588.6 425.3,771 355.9,771 
		280.7,640.8 222.6,540 189.9,483.5 224.6,423.4 	"/>
	<polygon class="st2" points="189.9,483.5 222.6,540 280.7,640.8 355.9,771 692,771 657.3,831.1 325.3,831.1 290.6,771 157.3,540 
		178.1,503.9 	"/>
	<polygon class="st3" points="759.3,774.5 726.7,831.1 694,887.6 358,887.6 337.1,851.5 325.3,831.1 657.3,831.1 692,771 
		718.8,724.6 724.6,714.5 	"/>
	<polygon class="st3" points="860,600.1 794.8,713 760.1,653 825.3,540 	"/>
	<polygon class="st2" points="1494.7,309 1564.1,309 1669.7,492 1697.4,540 1730.1,596.5 1695.4,656.6 1562.1,887.6 1496.8,887.6 
		1529.4,831.1 1578.8,745.5 1662.7,600.1 1628.1,540 1600.3,491.9 	"/>
	<polygon class="st3" points="1262.7,248.9 1594.7,248.9 1762.7,540 1741.9,576.1 1730.1,596.5 1697.4,540 1669.7,492 1564.1,309 
		1228,309 	"/>
	<polygon class="st2" points="1159.9,427 1094.7,540 1060,479.9 1125.2,367 	"/>
	<polygon class="st2" points="1594.7,248.9 1262.7,248.9 1228,309 1211.3,338 1195.4,365.5 1160.7,305.5 1174.4,281.8 1193.3,248.9 
		1226,192.4 1562.1,192.4 1582.9,228.5 	"/>
	<polygon class="st3" points="1228,771 1158.7,771 1143.3,744.3 1125.2,713 1083.5,640.8 1025.3,540 992.7,483.5 1027.4,423.4 
		1092.5,310.5 1125.2,367 1060,479.9 1094.7,540 1122.7,588.6 1159.8,652.9 1159.8,653 1177.9,684.2 1195.4,714.5 	"/>
	<polygon class="st0" points="1278.6,570.3 1195.4,714.5 1177.9,684.2 1243.1,571.3 1225.1,540 1210.8,515.2 1159.9,427 1125.2,367 
		1092.5,310.5 1092.5,310.4 1128.6,310.4 1143.3,335.7 1177.9,395.8 1245.7,513.2 1261.2,540 	"/>
	<polygon class="st3" points="1226,192.4 1193.3,248.9 1174.4,281.8 1160.7,305.5 1145.5,279.2 1128.1,248.9 1160.7,192.4 	"/>
	<polygon class="st2" points="1494.7,771 1460.1,831.1 1128.1,831.1 1110.6,800.8 1093.4,771 1092.5,769.6 960,540 980.9,503.9 
		992.7,483.5 1025.3,540 1083.5,640.8 1125.2,713 1143.3,744.3 1158.7,771 	"/>
	<polygon class="st3" points="1662.8,600.1 1578.8,745.5 1529.4,831.1 1496.8,887.6 1160.7,887.6 1139.8,851.5 1128.1,831.1 
		1460.1,831.1 1494.7,771 1521.5,724.6 1628.1,540 	"/>
</g>
</svg>
