<?xml version="1.0" encoding="utf-8"?>
<!-- Generator: Adobe Illustrator 23.0.5, SVG Export Plug-In . SVG Version: 6.00 Build 0)  -->
<svg version="1.1" id="Слой_1" xmlns="http://www.w3.org/2000/svg" xmlns:xlink="http://www.w3.org/1999/xlink" x="0px" y="0px"
	 viewBox="0 0 64 64" style="enable-background:new 0 0 64 64;" xml:space="preserve">
<style type="text/css">
	.st0{display:none;}
	.st1{display:inline;}
	.st2{display:inline;clip-path:url(#SVGID_2_);stroke:#5790C1;stroke-miterlimit:10;}
	.st3{stroke:#5790C1;stroke-width:2;stroke-miterlimit:10;}
	.st4{fill:#5790C1;}
</style>
<g class="st0">
	<defs>
		<path id="SVGID_1_" d="M13.6,31.9c0,10.1,8.2,18.4,18.4,18.4S50.3,42,50.3,31.9S42.1,13.5,32,13.5S13.6,21.8,13.6,31.9"/>
	</defs>
	<use xlink:href="#SVGID_1_"  style="display:inline;overflow:visible;"/>
	<clipPath id="SVGID_2_" class="st1">
		<use xlink:href="#SVGID_1_"  style="overflow:visible;"/>
	</clipPath>
	<path class="st2" d="M13.6,31.9c0,10.1,8.2,18.4,18.4,18.4S50.3,42,50.3,31.9S42.1,13.5,32,13.5S13.6,21.8,13.6,31.9"/>
	<use xlink:href="#SVGID_1_"  style="display:inline;overflow:visible;fill:none;stroke:#5790C1;stroke-miterlimit:10;"/>
</g>
<polygon class="st3" points="52.4,43.7 52.4,20.1 32,8.3 11.5,20.1 11.5,43.7 32,55.5 "/>
<path class="st4" d="M26.1,33.4L21.6,32c0,0-0.5-0.2-0.4-0.7c0-0.1,0.1-0.2,0.3-0.3c1-0.7,18.4-6.9,18.4-6.9s0.5-0.2,0.8-0.1
	c0.1,0.1,0.2,0.1,0.3,0.3c0,0.1,0,0.2,0,0.4c0,0.1,0,0.2,0,0.4c-0.1,1.7-3.3,14.5-3.3,14.5s-0.2,0.7-0.9,0.8c-0.2,0-0.5,0-0.9-0.3
	c-1.3-1.1-5.9-4.2-7-4.9c-0.1,0-0.1-0.1-0.1-0.1c0-0.1,0.1-0.2,0.1-0.2s8-7.1,8.2-7.9c0-0.1,0-0.1-0.1-0.1c-0.5,0.2-9.8,6-10.8,6.7
	C26.2,33.5,26.1,33.4,26.1,33.4"/>
</svg>
