<?xml version="1.0" encoding="utf-8"?>
<!-- Generator: Adobe Illustrator 23.0.5, SVG Export Plug-In . SVG Version: 6.00 Build 0)  -->
<svg version="1.1" xmlns="http://www.w3.org/2000/svg" xmlns:xlink="http://www.w3.org/1999/xlink" x="0px" y="0px"
	 viewBox="0 0 223.2 386.5" style="enable-background:new 0 0 223.2 386.5;" xml:space="preserve">
<style type="text/css">
	.st0{fill:#426D91;}
	.st1{fill:#4A79A3;}
	.st2{fill:#64A5DB;}
	.st3{fill:#5790C1;}
	.st4{fill:none;}
	.st5{fill:#C9C9C9;}
	.st6{fill:#BCBCBC;}
	.st7{fill:#FFFFFF;}
	.st8{fill:url(#);}
	.st9{fill:#5082B0;}
	.st10{fill:url(#SVGID_1_);}
	.st11{fill:#EFEFEF;}
	.st12{clip-path:url(#SVGID_3_);}
	.st13{clip-path:url(#SVGID_5_);}
	.st14{clip-path:url(#SVGID_7_);}
	.st15{clip-path:url(#SVGID_9_);}
	.st16{clip-path:url(#SVGID_11_);}
	.st17{clip-path:url(#SVGID_13_);fill:#4A79A3;}
	.st18{clip-path:url(#SVGID_13_);fill:#5790C1;}
	.st19{clip-path:url(#SVGID_15_);fill:#4A79A3;}
	.st20{clip-path:url(#SVGID_15_);fill:#5790C1;}
	.st21{clip-path:url(#SVGID_17_);fill:#4A79A3;}
	.st22{clip-path:url(#SVGID_17_);fill:#5790C1;}
	.st23{clip-path:url(#SVGID_19_);fill:#4A79A3;}
	.st24{clip-path:url(#SVGID_19_);fill:#5790C1;}
	.st25{clip-path:url(#SVGID_21_);fill:#4A79A3;}
	.st26{clip-path:url(#SVGID_21_);fill:#5790C1;}
	.st27{clip-path:url(#SVGID_23_);fill:#4A79A3;}
	.st28{clip-path:url(#SVGID_23_);fill:#5790C1;}
	.st29{clip-path:url(#SVGID_25_);fill:#4A79A3;}
	.st30{clip-path:url(#SVGID_25_);fill:#5790C1;}
	.st31{clip-path:url(#SVGID_27_);fill:#4A79A3;}
	.st32{clip-path:url(#SVGID_27_);fill:#5790C1;}
	.st33{clip-path:url(#SVGID_29_);fill:#4A79A3;}
	.st34{clip-path:url(#SVGID_29_);fill:#5790C1;}
	.st35{clip-path:url(#SVGID_31_);fill:#4A79A3;}
	.st36{clip-path:url(#SVGID_31_);fill:#5790C1;}
	.st37{clip-path:url(#SVGID_33_);fill:#4A79A3;}
	.st38{clip-path:url(#SVGID_33_);fill:#5790C1;}
	.st39{clip-path:url(#SVGID_35_);fill:#4A79A3;}
	.st40{clip-path:url(#SVGID_35_);fill:#5790C1;}
	.st41{clip-path:url(#SVGID_37_);fill:#4A79A3;}
	.st42{clip-path:url(#SVGID_37_);fill:#5790C1;}
	.st43{clip-path:url(#SVGID_39_);fill:#4A79A3;}
	.st44{clip-path:url(#SVGID_39_);fill:#5790C1;}
	.st45{clip-path:url(#SVGID_41_);fill:#4A79A3;}
	.st46{clip-path:url(#SVGID_41_);fill:#5790C1;}
	.st47{clip-path:url(#SVGID_43_);fill:#4A79A3;}
	.st48{clip-path:url(#SVGID_43_);fill:#5790C1;}
	.st49{clip-path:url(#SVGID_45_);fill:#4A79A3;}
	.st50{clip-path:url(#SVGID_45_);fill:#5790C1;}
	.st51{clip-path:url(#SVGID_47_);fill:#4A79A3;}
	.st52{clip-path:url(#SVGID_47_);fill:#5790C1;}
	.st53{clip-path:url(#SVGID_49_);fill:#4A79A3;}
	.st54{clip-path:url(#SVGID_49_);fill:#5790C1;}
	.st55{clip-path:url(#SVGID_51_);fill:#4A79A3;}
	.st56{clip-path:url(#SVGID_51_);fill:#5790C1;}
	.st57{clip-path:url(#SVGID_53_);fill:#4A79A3;}
	.st58{clip-path:url(#SVGID_53_);fill:#5790C1;}
	.st59{clip-path:url(#SVGID_55_);fill:#4A79A3;}
	.st60{clip-path:url(#SVGID_55_);fill:#5790C1;}
	.st61{clip-path:url(#SVGID_57_);fill:#4A79A3;}
	.st62{clip-path:url(#SVGID_57_);fill:#5790C1;}
	.st63{clip-path:url(#SVGID_59_);fill:#4A79A3;}
	.st64{clip-path:url(#SVGID_59_);fill:#5790C1;}
	.st65{clip-path:url(#SVGID_61_);fill:#4A79A3;}
	.st66{clip-path:url(#SVGID_61_);fill:#5790C1;}
</style>
<g id="Слой_1">
	<rect y="0" class="st0" width="223.2" height="386.5"/>
	<g>
		<g>
			<defs>
				<rect id="SVGID_2_" x="0" y="0" width="223.2" height="386.5"/>
			</defs>
			<clipPath id="SVGID_1_">
				<use xlink:href="#SVGID_2_"  style="overflow:visible;"/>
			</clipPath>
			<g style="clip-path:url(#SVGID_1_);">
				<g>
					<defs>
						<rect id="SVGID_4_" x="223.1" y="-113.9" width="223.2" height="386.5"/>
					</defs>
					<clipPath id="SVGID_3_">
						<use xlink:href="#SVGID_4_"  style="overflow:visible;"/>
					</clipPath>
					<g class="st12">
						<polygon class="st0" points="334.7,208.2 334.7,337 223.1,401.5 111.6,337 111.6,208.2 223.1,143.8 						"/>
						<polygon class="st1" points="304.8,225.5 304.8,319.8 264,343.3 223.1,366.9 223.1,272.6 264,296.2 						"/>
						<polygon class="st3" points="304.8,225.5 304.8,225.5 304.7,225.6 264,296.2 263.9,296.2 263.8,296.1 223.1,272.6 
							223.1,272.6 223.1,272.6 223.1,178.3 243.5,213.7 250.4,225.5 264,249 304.7,225.5 						"/>
					</g>
					<g class="st12">
						<polygon class="st0" points="446.3,14.9 446.3,143.8 334.7,208.2 223.1,143.8 223.1,14.9 334.7,-49.5 						"/>
					</g>
					<g class="st12">
						<polygon class="st0" points="334.7,-178.3 334.7,-49.5 223.1,14.9 111.6,-49.5 111.6,-178.3 223.1,-242.8 						"/>
					</g>
				</g>
			</g>
			<g style="clip-path:url(#SVGID_1_);">
				<g>
					<defs>
						<rect id="SVGID_6_" x="223.1" y="272.6" width="223.2" height="386.5"/>
					</defs>
					<clipPath id="SVGID_5_">
						<use xlink:href="#SVGID_6_"  style="overflow:visible;"/>
					</clipPath>
					<g class="st13">
						<polygon class="st0" points="446.3,401.5 446.3,530.3 334.7,594.7 223.1,530.3 223.1,401.5 334.7,337 						"/>
					</g>
					<g class="st13">
						<polygon class="st0" points="334.7,208.2 334.7,337 223.1,401.5 111.6,337 111.6,208.2 223.1,143.8 						"/>
						<polygon class="st1" points="304.8,225.5 304.8,319.8 264,343.3 223.1,366.9 223.1,272.6 264,296.2 						"/>
						<polygon class="st3" points="304.8,225.5 304.8,225.5 304.7,225.6 264,296.2 263.9,296.2 263.8,296.1 223.1,272.6 
							223.1,272.6 223.1,272.6 223.1,178.3 243.5,213.7 250.4,225.5 264,249 304.7,225.5 						"/>
					</g>
				</g>
			</g>
			<g style="clip-path:url(#SVGID_1_);">
				<g>
					<defs>
						<rect id="SVGID_8_" x="0" y="-113.9" width="223.2" height="386.5"/>
					</defs>
					<clipPath id="SVGID_7_">
						<use xlink:href="#SVGID_8_"  style="overflow:visible;"/>
					</clipPath>
					<g class="st14">
						<polygon class="st0" points="334.7,208.2 334.7,337 223.1,401.5 111.6,337 111.6,208.2 223.1,143.8 						"/>
						<polygon class="st3" points="223.1,272.6 223.1,366.9 182.3,343.3 141.5,319.8 141.5,225.5 182.3,296.2 223.1,272.6 						"/>
						<polygon class="st1" points="223.1,178.3 223.1,272.6 182.4,296.1 182.3,296.2 182.3,296.2 141.5,225.6 141.5,225.5 
							141.5,225.5 141.5,225.5 182.3,249 195.9,225.5 202.7,213.7 						"/>
						<polygon class="st3" points="304.8,225.5 304.8,225.5 304.7,225.6 264,296.2 263.9,296.2 263.8,296.1 223.1,272.6 
							223.1,272.6 223.1,272.6 223.1,178.3 243.5,213.7 250.4,225.5 264,249 304.7,225.5 						"/>
					</g>
					<g class="st14">
						<polygon class="st0" points="111.6,208.2 111.6,337 0,401.5 -111.6,337 -111.6,208.2 0,143.8 						"/>
						<polygon class="st1" points="81.6,225.5 81.6,319.8 40.8,343.3 0,366.9 0,272.6 40.8,296.2 						"/>
						<polygon class="st3" points="81.6,225.5 81.6,225.5 81.6,225.6 40.8,296.2 40.8,296.2 40.7,296.1 0,272.6 0,272.6 0,272.6 
							0,178.3 20.4,213.7 27.2,225.5 40.8,249 81.6,225.5 						"/>
					</g>
					<g class="st14">
						<polygon class="st0" points="223.1,14.9 223.1,143.8 111.5,208.2 0,143.8 0,14.9 111.5,-49.5 						"/>
						<polygon class="st3" points="111.6,79.4 111.6,173.7 70.7,150.1 29.9,126.5 29.9,32.2 70.7,102.9 111.5,79.4 						"/>
						<polygon class="st1" points="111.5,-15 111.5,79.4 70.9,102.8 70.7,102.9 70.7,102.9 29.9,32.3 29.9,32.2 29.9,32.2 
							29.9,32.2 70.7,55.8 84.3,32.2 91.1,20.4 						"/>
						<polygon class="st1" points="193.2,32.2 193.2,126.5 152.4,150.1 111.6,173.7 111.6,79.4 152.4,102.9 						"/>
						<polygon class="st3" points="193.2,32.2 193.2,32.2 193.2,32.3 152.4,102.9 152.4,102.9 152.2,102.8 111.6,79.4 111.6,79.4 
							111.5,79.4 111.5,-15 132,20.4 138.8,32.2 152.4,55.8 193.2,32.2 						"/>
					</g>
					<g class="st14">
						<polygon class="st0" points="334.7,-178.3 334.7,-49.5 223.1,14.9 111.6,-49.5 111.6,-178.3 223.1,-242.8 						"/>
					</g>
					<g class="st14">
						<polygon class="st0" points="111.6,-178.3 111.6,-49.5 0,14.9 -111.6,-49.5 -111.6,-178.3 0,-242.8 						"/>
					</g>
				</g>
			</g>
			<g style="clip-path:url(#SVGID_1_);">
				<g>
					<defs>
						<rect id="SVGID_10_" x="0" y="272.6" width="223.2" height="386.5"/>
					</defs>
					<clipPath id="SVGID_9_">
						<use xlink:href="#SVGID_10_"  style="overflow:visible;"/>
					</clipPath>
					<g class="st15">
						<polygon class="st0" points="223.1,401.5 223.1,530.3 111.5,594.7 0,530.3 0,401.5 111.5,337 						"/>
						<polygon class="st1" points="111.5,371.6 111.5,465.9 70.9,489.4 70.7,489.4 70.7,489.5 29.9,418.8 29.9,418.7 29.9,418.7 
							29.9,418.8 70.7,442.3 84.3,418.7 91.1,406.9 						"/>
						<polygon class="st3" points="193.2,418.7 193.2,418.7 193.2,418.8 152.4,489.5 152.4,489.4 152.2,489.4 111.6,465.9 
							111.6,465.9 111.5,465.9 111.5,371.6 132,406.9 138.8,418.7 152.4,442.3 193.2,418.8 						"/>
					</g>
					<g class="st15">
						<polygon class="st0" points="334.7,208.2 334.7,337 223.1,401.5 111.6,337 111.6,208.2 223.1,143.8 						"/>
						<polygon class="st3" points="223.1,272.6 223.1,366.9 182.3,343.3 141.5,319.8 141.5,225.5 182.3,296.2 223.1,272.6 						"/>
						<polygon class="st1" points="223.1,178.3 223.1,272.6 182.4,296.1 182.3,296.2 182.3,296.2 141.5,225.6 141.5,225.5 
							141.5,225.5 141.5,225.5 182.3,249 195.9,225.5 202.7,213.7 						"/>
						<polygon class="st3" points="304.8,225.5 304.8,225.5 304.7,225.6 264,296.2 263.9,296.2 263.8,296.1 223.1,272.6 
							223.1,272.6 223.1,272.6 223.1,178.3 243.5,213.7 250.4,225.5 264,249 304.7,225.5 						"/>
					</g>
					<g class="st15">
						<polygon class="st0" points="111.6,208.2 111.6,337 0,401.5 -111.6,337 -111.6,208.2 0,143.8 						"/>
						<polygon class="st1" points="81.6,225.5 81.6,319.8 40.8,343.3 0,366.9 0,272.6 40.8,296.2 						"/>
						<polygon class="st3" points="81.6,225.5 81.6,225.5 81.6,225.6 40.8,296.2 40.8,296.2 40.7,296.1 0,272.6 0,272.6 0,272.6 
							0,178.3 20.4,213.7 27.2,225.5 40.8,249 81.6,225.5 						"/>
					</g>
				</g>
			</g>
		</g>
	</g>
</g>
<g id="Слой_2">
</g>
</svg>
