<?xml version="1.0" encoding="utf-8"?>
<!-- Generator: Adobe Illustrator 23.0.5, SVG Export Plug-In . SVG Version: 6.00 Build 0)  -->
<svg version="1.1" xmlns="http://www.w3.org/2000/svg" xmlns:xlink="http://www.w3.org/1999/xlink" x="0px" y="0px"
	 viewBox="0 0 223.2 386.5" style="enable-background:new 0 0 223.2 386.5;" xml:space="preserve">
<style type="text/css">
	.st0{fill:#426D91;}
	.st1{fill:#4A79A3;}
	.st2{fill:#64A5DB;}
	.st3{fill:#5790C1;}
	.st4{fill:none;}
	.st5{fill:#C9C9C9;}
	.st6{fill:#BCBCBC;}
	.st7{fill:#FFFFFF;}
	.st8{fill:url(#);}
	.st9{fill:#5082B0;}
	.st10{fill:url(#SVGID_1_);}
	.st11{fill:#EFEFEF;}
	.st12{clip-path:url(#SVGID_3_);}
	.st13{clip-path:url(#SVGID_5_);}
	.st14{clip-path:url(#SVGID_7_);}
	.st15{clip-path:url(#SVGID_9_);}
	.st16{clip-path:url(#SVGID_11_);}
	.st17{clip-path:url(#SVGID_13_);fill:#4A79A3;}
	.st18{clip-path:url(#SVGID_13_);fill:#5790C1;}
	.st19{clip-path:url(#SVGID_15_);fill:#4A79A3;}
	.st20{clip-path:url(#SVGID_15_);fill:#5790C1;}
	.st21{clip-path:url(#SVGID_17_);fill:#4A79A3;}
	.st22{clip-path:url(#SVGID_17_);fill:#5790C1;}
	.st23{clip-path:url(#SVGID_19_);fill:#4A79A3;}
	.st24{clip-path:url(#SVGID_19_);fill:#5790C1;}
	.st25{clip-path:url(#SVGID_21_);fill:#4A79A3;}
	.st26{clip-path:url(#SVGID_21_);fill:#5790C1;}
	.st27{clip-path:url(#SVGID_23_);fill:#4A79A3;}
	.st28{clip-path:url(#SVGID_23_);fill:#5790C1;}
	.st29{clip-path:url(#SVGID_25_);fill:#4A79A3;}
	.st30{clip-path:url(#SVGID_25_);fill:#5790C1;}
	.st31{clip-path:url(#SVGID_27_);fill:#4A79A3;}
	.st32{clip-path:url(#SVGID_27_);fill:#5790C1;}
	.st33{clip-path:url(#SVGID_29_);fill:#4A79A3;}
	.st34{clip-path:url(#SVGID_29_);fill:#5790C1;}
	.st35{clip-path:url(#SVGID_31_);fill:#4A79A3;}
	.st36{clip-path:url(#SVGID_31_);fill:#5790C1;}
	.st37{clip-path:url(#SVGID_33_);fill:#4A79A3;}
	.st38{clip-path:url(#SVGID_33_);fill:#5790C1;}
	.st39{clip-path:url(#SVGID_35_);fill:#4A79A3;}
	.st40{clip-path:url(#SVGID_35_);fill:#5790C1;}
	.st41{clip-path:url(#SVGID_37_);fill:#4A79A3;}
	.st42{clip-path:url(#SVGID_37_);fill:#5790C1;}
	.st43{clip-path:url(#SVGID_39_);fill:#4A79A3;}
	.st44{clip-path:url(#SVGID_39_);fill:#5790C1;}
	.st45{clip-path:url(#SVGID_41_);fill:#4A79A3;}
	.st46{clip-path:url(#SVGID_41_);fill:#5790C1;}
	.st47{clip-path:url(#SVGID_43_);fill:#4A79A3;}
	.st48{clip-path:url(#SVGID_43_);fill:#5790C1;}
	.st49{clip-path:url(#SVGID_45_);fill:#4A79A3;}
	.st50{clip-path:url(#SVGID_45_);fill:#5790C1;}
	.st51{clip-path:url(#SVGID_47_);fill:#4A79A3;}
	.st52{clip-path:url(#SVGID_47_);fill:#5790C1;}
	.st53{clip-path:url(#SVGID_49_);fill:#4A79A3;}
	.st54{clip-path:url(#SVGID_49_);fill:#5790C1;}
	.st55{clip-path:url(#SVGID_51_);fill:#4A79A3;}
	.st56{clip-path:url(#SVGID_51_);fill:#5790C1;}
	.st57{clip-path:url(#SVGID_53_);fill:#4A79A3;}
	.st58{clip-path:url(#SVGID_53_);fill:#5790C1;}
	.st59{clip-path:url(#SVGID_55_);fill:#4A79A3;}
	.st60{clip-path:url(#SVGID_55_);fill:#5790C1;}
	.st61{clip-path:url(#SVGID_57_);fill:#4A79A3;}
	.st62{clip-path:url(#SVGID_57_);fill:#5790C1;}
	.st63{clip-path:url(#SVGID_59_);fill:#4A79A3;}
	.st64{clip-path:url(#SVGID_59_);fill:#5790C1;}
	.st65{clip-path:url(#SVGID_61_);fill:#4A79A3;}
	.st66{clip-path:url(#SVGID_61_);fill:#5790C1;}
</style>
<g id="Слой_1">
	<rect y="0" class="st0" width="223.2" height="386.5"/>
	<g>
		<g>
			<defs>
				<rect id="SVGID_2_" x="0" y="0" width="223.2" height="386.5"/>
			</defs>
			<clipPath id="SVGID_1_">
				<use xlink:href="#SVGID_2_"  style="overflow:visible;"/>
			</clipPath>
			<g style="clip-path:url(#SVGID_1_);">
				<g>
					<defs>
						<rect id="SVGID_4_" x="19.8" y="-87.3" width="224.7" height="389.2"/>
					</defs>
					<clipPath id="SVGID_3_">
						<use xlink:href="#SVGID_4_"  style="overflow:visible;"/>
					</clipPath>
					<g class="st12">
						<polygon class="st2" points="356.8,237.1 356.8,366.7 300.6,399.1 300.6,334.3 300.6,334.3 244.5,366.7 188.3,334.3 
							188.3,334.3 188.3,399.1 132.1,366.7 132.1,237.1 132.2,237 244.5,172.2 356.7,237 						"/>
						<polygon class="st3" points="244.5,301.8 244.5,366.7 188.3,334.3 188.3,334.3 188.3,399.1 132.1,366.7 132.1,237 132.2,237 
							188.3,269.4 						"/>
					</g>
					<g class="st12">
						<polygon class="st2" points="132.1,237.1 132.1,366.7 76,399.1 76,334.3 76,334.3 19.8,366.7 -36.4,334.3 -36.4,334.3 
							-36.4,399.1 -92.6,366.7 -92.6,237.1 -92.5,237 19.8,172.2 132.1,237 						"/>
						<polygon class="st1" points="132.1,237 132.1,366.7 76,399.1 76,334.3 76,334.3 19.8,366.7 19.8,301.8 76,269.4 132.1,237 
													"/>
					</g>
					<g class="st12">
						<polygon class="st0" points="244.5,172.1 244.5,172.2 132.1,237.1 19.8,172.2 19.8,172.1 76,204.6 76,139.7 76,139.7 
							132.1,172.1 188.3,139.7 188.3,139.7 188.3,204.6 						"/>
						<polygon class="st2" points="244.5,42.5 244.5,172.1 188.3,204.6 188.3,139.7 188.3,139.7 132.1,172.1 76,139.7 76,139.7 
							76,204.6 19.8,172.1 19.8,42.5 19.9,42.4 132.1,-22.4 244.4,42.4 						"/>
						<polygon class="st3" points="132.1,107.3 132.1,172.1 76,139.7 76,139.7 76,204.6 19.8,172.1 19.8,42.4 19.9,42.4 76,74.8 
													"/>
						<polygon class="st1" points="244.5,42.4 244.5,172.1 188.3,204.6 188.3,139.7 188.3,139.7 132.1,172.1 132.1,107.3 
							188.3,74.8 244.4,42.4 						"/>
					</g>
					<g class="st12">
						<polygon class="st0" points="356.8,-22.5 356.8,-22.4 244.5,42.5 132.1,-22.4 132.1,-22.5 188.3,10 188.3,-54.9 188.3,-54.9 
							244.5,-22.5 300.6,-54.9 300.6,-54.9 300.6,10 						"/>
						<polygon class="st2" points="356.8,-152.1 356.8,-22.5 300.6,10 300.6,-54.9 300.6,-54.9 244.5,-22.5 188.3,-54.9 
							188.3,-54.9 188.3,10 132.1,-22.5 132.1,-152.1 132.2,-152.2 244.5,-217 356.7,-152.2 						"/>
						<polygon class="st3" points="244.5,-87.3 244.5,-22.5 188.3,-54.9 188.3,-54.9 188.3,10 132.1,-22.5 132.1,-152.2 
							132.2,-152.2 188.3,-119.8 						"/>
					</g>
					<g class="st12">
						<polygon class="st0" points="132.1,-22.5 132.1,-22.4 19.8,42.5 -92.6,-22.4 -92.6,-22.5 -36.4,10 -36.4,-54.9 -36.4,-54.9 
							19.8,-22.5 76,-54.9 76,-54.9 76,10 						"/>
						<polygon class="st2" points="132.1,-152.1 132.1,-22.5 76,10 76,-54.9 76,-54.9 19.8,-22.5 -36.4,-54.9 -36.4,-54.9 -36.4,10 
							-92.6,-22.5 -92.6,-152.1 -92.5,-152.2 19.8,-217 132.1,-152.2 						"/>
						<polygon class="st1" points="132.1,-152.2 132.1,-22.5 76,10 76,-54.9 76,-54.9 19.8,-22.5 19.8,-87.3 76,-119.8 
							132.1,-152.2 						"/>
					</g>
				</g>
			</g>
			<g style="clip-path:url(#SVGID_1_);">
				<g>
					<defs>
						<rect id="SVGID_6_" x="19.8" y="301.9" width="224.7" height="389.2"/>
					</defs>
					<clipPath id="SVGID_5_">
						<use xlink:href="#SVGID_6_"  style="overflow:visible;"/>
					</clipPath>
					<g class="st13">
						<polygon class="st2" points="244.5,431.7 244.5,561.3 188.3,593.7 188.3,528.9 188.3,528.9 132.1,561.3 76,528.9 76,528.9 
							76,593.7 19.8,561.3 19.8,431.7 19.9,431.6 132.1,366.8 244.4,431.6 						"/>
					</g>
					<g class="st13">
						<polygon class="st0" points="356.8,366.7 356.8,366.8 244.5,431.7 132.1,366.8 132.1,366.7 188.3,399.1 188.3,334.3 
							188.3,334.3 244.5,366.7 300.6,334.3 300.6,334.3 300.6,399.1 						"/>
						<polygon class="st2" points="356.8,237.1 356.8,366.7 300.6,399.1 300.6,334.3 300.6,334.3 244.5,366.7 188.3,334.3 
							188.3,334.3 188.3,399.1 132.1,366.7 132.1,237.1 132.2,237 244.5,172.2 356.7,237 						"/>
						<polygon class="st3" points="244.5,301.8 244.5,366.7 188.3,334.3 188.3,334.3 188.3,399.1 132.1,366.7 132.1,237 132.2,237 
							188.3,269.4 						"/>
					</g>
					<g class="st13">
						<polygon class="st0" points="132.1,366.7 132.1,366.8 19.8,431.7 -92.6,366.8 -92.6,366.7 -36.4,399.1 -36.4,334.3 
							-36.4,334.3 19.8,366.7 76,334.3 76,334.3 76,399.1 						"/>
						<polygon class="st2" points="132.1,237.1 132.1,366.7 76,399.1 76,334.3 76,334.3 19.8,366.7 -36.4,334.3 -36.4,334.3 
							-36.4,399.1 -92.6,366.7 -92.6,237.1 -92.5,237 19.8,172.2 132.1,237 						"/>
						<polygon class="st1" points="132.1,237 132.1,366.7 76,399.1 76,334.3 76,334.3 19.8,366.7 19.8,301.8 76,269.4 132.1,237 
													"/>
					</g>
				</g>
			</g>
			<g style="clip-path:url(#SVGID_1_);">
				<g>
					<defs>
						<rect id="SVGID_8_" x="-204.9" y="-87.3" width="224.7" height="389.2"/>
					</defs>
					<clipPath id="SVGID_7_">
						<use xlink:href="#SVGID_8_"  style="overflow:visible;"/>
					</clipPath>
					<g class="st14">
						<polygon class="st2" points="132.1,237.1 132.1,366.7 76,399.1 76,334.3 76,334.3 19.8,366.7 -36.4,334.3 -36.4,334.3 
							-36.4,399.1 -92.6,366.7 -92.6,237.1 -92.5,237 19.8,172.2 132.1,237 						"/>
						<polygon class="st3" points="19.8,301.8 19.8,366.7 -36.4,334.3 -36.4,334.3 -36.4,399.1 -92.6,366.7 -92.6,237 -92.5,237 
							-36.4,269.4 						"/>
					</g>
					<g class="st14">
						<polygon class="st0" points="19.8,172.1 19.8,172.2 -92.6,237.1 -204.9,172.2 -204.9,172.1 -148.7,204.6 -148.7,139.7 
							-148.7,139.7 -92.6,172.1 -36.4,139.7 -36.4,139.7 -36.4,204.6 						"/>
						<polygon class="st2" points="19.8,42.5 19.8,172.1 -36.4,204.6 -36.4,139.7 -36.4,139.7 -92.6,172.1 -148.7,139.7 
							-148.7,139.7 -148.7,204.6 -204.9,172.1 -204.9,42.5 -204.8,42.4 -92.6,-22.4 19.7,42.4 						"/>
						<polygon class="st1" points="19.8,42.4 19.8,172.1 -36.4,204.6 -36.4,139.7 -36.4,139.7 -92.6,172.1 -92.6,107.3 -36.4,74.8 
							19.7,42.4 						"/>
					</g>
					<g class="st14">
						<polygon class="st0" points="132.1,-22.5 132.1,-22.4 19.8,42.5 -92.6,-22.4 -92.6,-22.5 -36.4,10 -36.4,-54.9 -36.4,-54.9 
							19.8,-22.5 76,-54.9 76,-54.9 76,10 						"/>
						<polygon class="st2" points="132.1,-152.1 132.1,-22.5 76,10 76,-54.9 76,-54.9 19.8,-22.5 -36.4,-54.9 -36.4,-54.9 -36.4,10 
							-92.6,-22.5 -92.6,-152.1 -92.5,-152.2 19.8,-217 132.1,-152.2 						"/>
						<polygon class="st3" points="19.8,-87.3 19.8,-22.5 -36.4,-54.9 -36.4,-54.9 -36.4,10 -92.6,-22.5 -92.6,-152.2 -92.5,-152.2 
							-36.4,-119.8 						"/>
					</g>
				</g>
			</g>
			<g style="clip-path:url(#SVGID_1_);">
				<g>
					<defs>
						<rect id="SVGID_10_" x="-204.9" y="301.9" width="224.7" height="389.2"/>
					</defs>
					<clipPath id="SVGID_9_">
						<use xlink:href="#SVGID_10_"  style="overflow:visible;"/>
					</clipPath>
					<g class="st15">
						<polygon class="st2" points="19.8,431.7 19.8,561.3 -36.4,593.7 -36.4,528.9 -36.4,528.9 -92.6,561.3 -148.7,528.9 
							-148.7,528.9 -148.7,593.7 -204.9,561.3 -204.9,431.7 -204.8,431.6 -92.6,366.8 19.7,431.6 						"/>
					</g>
					<g class="st15">
						<polygon class="st0" points="132.1,366.7 132.1,366.8 19.8,431.7 -92.6,366.8 -92.6,366.7 -36.4,399.1 -36.4,334.3 
							-36.4,334.3 19.8,366.7 76,334.3 76,334.3 76,399.1 						"/>
						<polygon class="st2" points="132.1,237.1 132.1,366.7 76,399.1 76,334.3 76,334.3 19.8,366.7 -36.4,334.3 -36.4,334.3 
							-36.4,399.1 -92.6,366.7 -92.6,237.1 -92.5,237 19.8,172.2 132.1,237 						"/>
						<polygon class="st3" points="19.8,301.8 19.8,366.7 -36.4,334.3 -36.4,334.3 -36.4,399.1 -92.6,366.7 -92.6,237 -92.5,237 
							-36.4,269.4 						"/>
					</g>
				</g>
			</g>
		</g>
	</g>
</g>
<g id="Слой_2">
</g>
</svg>
