<?xml version="1.0" encoding="utf-8"?>
<!-- Generator: Adobe Illustrator 23.0.5, SVG Export Plug-In . SVG Version: 6.00 Build 0)  -->
<svg version="1.1" xmlns="http://www.w3.org/2000/svg" xmlns:xlink="http://www.w3.org/1999/xlink" x="0px" y="0px"
	 viewBox="0 0 223.2 386.5" style="enable-background:new 0 0 223.2 386.5;" xml:space="preserve">
<style type="text/css">
	.st0{fill:#426D91;}
	.st1{fill:#4A79A3;}
	.st2{fill:#64A5DB;}
	.st3{fill:#5790C1;}
	.st4{fill:none;}
	.st5{fill:#C9C9C9;}
	.st6{fill:#BCBCBC;}
	.st7{fill:#FFFFFF;}
	.st8{fill:url(#);}
	.st9{fill:#5082B0;}
	.st10{fill:url(#SVGID_1_);}
	.st11{fill:#EFEFEF;}
	.st12{clip-path:url(#SVGID_3_);}
	.st13{clip-path:url(#SVGID_5_);}
	.st14{clip-path:url(#SVGID_7_);}
	.st15{clip-path:url(#SVGID_9_);}
	.st16{clip-path:url(#SVGID_11_);}
	.st17{clip-path:url(#SVGID_13_);fill:#4A79A3;}
	.st18{clip-path:url(#SVGID_13_);fill:#5790C1;}
	.st19{clip-path:url(#SVGID_15_);fill:#4A79A3;}
	.st20{clip-path:url(#SVGID_15_);fill:#5790C1;}
	.st21{clip-path:url(#SVGID_17_);fill:#4A79A3;}
	.st22{clip-path:url(#SVGID_17_);fill:#5790C1;}
	.st23{clip-path:url(#SVGID_19_);fill:#4A79A3;}
	.st24{clip-path:url(#SVGID_19_);fill:#5790C1;}
	.st25{clip-path:url(#SVGID_21_);fill:#4A79A3;}
	.st26{clip-path:url(#SVGID_21_);fill:#5790C1;}
	.st27{clip-path:url(#SVGID_23_);fill:#4A79A3;}
	.st28{clip-path:url(#SVGID_23_);fill:#5790C1;}
	.st29{clip-path:url(#SVGID_25_);fill:#4A79A3;}
	.st30{clip-path:url(#SVGID_25_);fill:#5790C1;}
	.st31{clip-path:url(#SVGID_27_);fill:#4A79A3;}
	.st32{clip-path:url(#SVGID_27_);fill:#5790C1;}
	.st33{clip-path:url(#SVGID_29_);fill:#4A79A3;}
	.st34{clip-path:url(#SVGID_29_);fill:#5790C1;}
	.st35{clip-path:url(#SVGID_31_);fill:#4A79A3;}
	.st36{clip-path:url(#SVGID_31_);fill:#5790C1;}
	.st37{clip-path:url(#SVGID_33_);fill:#4A79A3;}
	.st38{clip-path:url(#SVGID_33_);fill:#5790C1;}
	.st39{clip-path:url(#SVGID_35_);fill:#4A79A3;}
	.st40{clip-path:url(#SVGID_35_);fill:#5790C1;}
	.st41{clip-path:url(#SVGID_37_);fill:#4A79A3;}
	.st42{clip-path:url(#SVGID_37_);fill:#5790C1;}
	.st43{clip-path:url(#SVGID_39_);fill:#4A79A3;}
	.st44{clip-path:url(#SVGID_39_);fill:#5790C1;}
	.st45{clip-path:url(#SVGID_41_);fill:#4A79A3;}
	.st46{clip-path:url(#SVGID_41_);fill:#5790C1;}
	.st47{clip-path:url(#SVGID_43_);fill:#4A79A3;}
	.st48{clip-path:url(#SVGID_43_);fill:#5790C1;}
	.st49{clip-path:url(#SVGID_45_);fill:#4A79A3;}
	.st50{clip-path:url(#SVGID_45_);fill:#5790C1;}
	.st51{clip-path:url(#SVGID_47_);fill:#4A79A3;}
	.st52{clip-path:url(#SVGID_47_);fill:#5790C1;}
	.st53{clip-path:url(#SVGID_49_);fill:#4A79A3;}
	.st54{clip-path:url(#SVGID_49_);fill:#5790C1;}
	.st55{clip-path:url(#SVGID_51_);fill:#4A79A3;}
	.st56{clip-path:url(#SVGID_51_);fill:#5790C1;}
	.st57{clip-path:url(#SVGID_53_);fill:#4A79A3;}
	.st58{clip-path:url(#SVGID_53_);fill:#5790C1;}
	.st59{clip-path:url(#SVGID_55_);fill:#4A79A3;}
	.st60{clip-path:url(#SVGID_55_);fill:#5790C1;}
	.st61{clip-path:url(#SVGID_57_);fill:#4A79A3;}
	.st62{clip-path:url(#SVGID_57_);fill:#5790C1;}
	.st63{clip-path:url(#SVGID_59_);fill:#4A79A3;}
	.st64{clip-path:url(#SVGID_59_);fill:#5790C1;}
	.st65{clip-path:url(#SVGID_61_);fill:#4A79A3;}
	.st66{clip-path:url(#SVGID_61_);fill:#5790C1;}
</style>
<g id="Слой_1">
	<rect y="0" class="st0" width="223.2" height="386.5"/>
	<g>
		<g>
			<defs>
				<rect id="SVGID_2_" x="0" y="0" width="223.2" height="386.5"/>
			</defs>
			<clipPath id="SVGID_1_">
				<use xlink:href="#SVGID_2_"  style="overflow:visible;"/>
			</clipPath>
			<g style="clip-path:url(#SVGID_1_);">
				<g>
					<defs>
						<rect id="SVGID_4_" x="223.1" y="-113.9" width="223.2" height="386.5"/>
					</defs>
					<clipPath id="SVGID_3_">
						<use xlink:href="#SVGID_4_"  style="overflow:visible;"/>
					</clipPath>
					<g class="st12">
						<polygon class="st2" points="334.7,208.2 334.7,337 223.1,401.5 111.6,337 111.6,208.2 223.1,143.8 						"/>
						<polygon class="st1" points="289.4,253.5 289.4,330 256.3,349.2 256.3,310.9 256.3,310.9 223.1,330 223.1,291.7 256.3,272.6 
													"/>
						<polygon class="st1" points="256.3,215.2 256.3,253.5 239.7,263 223.1,272.6 223.1,234.3 239.7,243.9 						"/>
						<polygon class="st3" points="239.7,224.8 256.3,215.2 256.3,215.2 239.7,243.9 223.1,234.3 223.1,234.3 223.1,234.3 
							223.1,196.1 231.4,210.4 234.2,215.2 						"/>
					</g>
					<g class="st12">
						<polygon class="st2" points="446.3,14.9 446.3,143.8 334.7,208.2 223.1,143.8 223.1,14.9 334.7,-49.5 						"/>
					</g>
					<g class="st12">
						<polygon class="st2" points="334.7,-178.3 334.7,-49.5 223.1,14.9 111.6,-49.5 111.6,-178.3 223.1,-242.8 						"/>
					</g>
				</g>
			</g>
			<g style="clip-path:url(#SVGID_1_);">
				<g>
					<defs>
						<rect id="SVGID_6_" x="223.1" y="272.6" width="223.2" height="386.5"/>
					</defs>
					<clipPath id="SVGID_5_">
						<use xlink:href="#SVGID_6_"  style="overflow:visible;"/>
					</clipPath>
					<g class="st13">
						<polygon class="st2" points="446.3,401.5 446.3,530.3 334.7,594.7 223.1,530.3 223.1,401.5 334.7,337 						"/>
					</g>
					<g class="st13">
						<polygon class="st2" points="334.7,208.2 334.7,337 223.1,401.5 111.6,337 111.6,208.2 223.1,143.8 						"/>
						<polygon class="st1" points="289.4,253.5 289.4,330 256.3,349.2 256.3,310.9 256.3,310.9 223.1,330 223.1,291.7 256.3,272.6 
													"/>
					</g>
				</g>
			</g>
			<g style="clip-path:url(#SVGID_1_);">
				<g>
					<defs>
						<rect id="SVGID_8_" x="0" y="-113.9" width="223.2" height="386.5"/>
					</defs>
					<clipPath id="SVGID_7_">
						<use xlink:href="#SVGID_8_"  style="overflow:visible;"/>
					</clipPath>
					<g class="st14">
						<polygon class="st2" points="334.7,208.2 334.7,337 223.1,401.5 111.6,337 111.6,208.2 223.1,143.8 						"/>
						<polygon class="st3" points="223.1,291.7 223.1,330 190,310.9 190,310.9 190,349.2 156.9,330 156.9,253.5 190,272.6 						"/>
						<polygon class="st3" points="223.1,234.3 223.1,272.6 206.6,263 190,253.5 190,215.2 206.6,243.9 223.1,234.3 						"/>
						<polygon class="st1" points="223.1,196.1 223.1,234.3 206.6,243.9 190,215.2 190,215.2 206.6,224.8 212.1,215.2 214.9,210.4 
													"/>
						<polygon class="st3" points="239.7,224.8 256.3,215.2 256.3,215.2 239.7,243.9 223.1,234.3 223.1,234.3 223.1,234.3 
							223.1,196.1 231.4,210.4 234.2,215.2 						"/>
					</g>
					<g class="st14">
						<polygon class="st2" points="111.6,208.2 111.6,337 0,401.5 -111.6,337 -111.6,208.2 0,143.8 						"/>
						<polygon class="st1" points="66.3,253.5 66.3,330 33.1,349.2 33.1,310.9 33.1,310.9 0,330 0,291.7 33.1,272.6 						"/>
						<polygon class="st1" points="33.1,215.2 33.1,253.5 16.5,263 0,272.6 0,234.3 16.5,243.9 						"/>
						<polygon class="st3" points="16.5,224.8 33.1,215.2 33.1,215.2 16.5,243.9 0,234.3 0,234.3 0,234.3 0,196.1 8.3,210.4 
							11,215.2 						"/>
					</g>
					<g class="st14">
						<polygon class="st2" points="223.1,14.9 223.1,143.8 111.5,208.2 0,143.8 0,14.9 111.5,-49.5 						"/>
						<polygon class="st3" points="111.6,98.5 111.6,136.8 78.4,117.6 78.4,117.6 78.4,155.9 45.3,136.8 45.3,60.2 78.4,79.4 						
							"/>
						<polygon class="st1" points="177.8,60.2 177.8,136.8 144.7,155.9 144.7,117.6 144.7,117.6 111.6,136.8 111.6,98.5 144.7,79.4 
													"/>
						<polygon class="st3" points="111.6,41.1 111.6,79.4 95,69.8 78.4,60.2 78.4,21.9 95,50.6 111.6,41.1 						"/>
						<polygon class="st1" points="111.6,2.8 111.6,41.1 95,50.6 78.4,21.9 78.4,21.9 95,31.5 100.5,21.9 103.3,17.2 						"/>
						<polygon class="st1" points="144.7,21.9 144.7,60.2 128.1,69.8 111.6,79.4 111.6,41.1 128.1,50.6 						"/>
						<polygon class="st3" points="128.1,31.5 144.7,21.9 144.7,21.9 128.1,50.6 111.6,41.1 111.6,41.1 111.6,41.1 111.6,2.8 
							119.8,17.2 122.6,21.9 						"/>
					</g>
					<g class="st14">
						<polygon class="st2" points="334.7,-178.3 334.7,-49.5 223.1,14.9 111.6,-49.5 111.6,-178.3 223.1,-242.8 						"/>
					</g>
					<g class="st14">
						<polygon class="st2" points="111.6,-178.3 111.6,-49.5 0,14.9 -111.6,-49.5 -111.6,-178.3 0,-242.8 						"/>
					</g>
				</g>
			</g>
			<g style="clip-path:url(#SVGID_1_);">
				<g>
					<defs>
						<rect id="SVGID_10_" x="0" y="272.6" width="223.2" height="386.5"/>
					</defs>
					<clipPath id="SVGID_9_">
						<use xlink:href="#SVGID_10_"  style="overflow:visible;"/>
					</clipPath>
					<g class="st15">
						<polygon class="st2" points="223.1,401.5 223.1,530.3 111.5,594.7 0,530.3 0,401.5 111.5,337 						"/>
					</g>
					<g class="st15">
						<polygon class="st2" points="334.7,208.2 334.7,337 223.1,401.5 111.6,337 111.6,208.2 223.1,143.8 						"/>
						<polygon class="st3" points="223.1,291.7 223.1,330 190,310.9 190,310.9 190,349.2 156.9,330 156.9,253.5 190,272.6 						"/>
					</g>
					<g class="st15">
						<polygon class="st2" points="111.6,208.2 111.6,337 0,401.5 -111.6,337 -111.6,208.2 0,143.8 						"/>
						<polygon class="st1" points="66.3,253.5 66.3,330 33.1,349.2 33.1,310.9 33.1,310.9 0,330 0,291.7 33.1,272.6 						"/>
					</g>
				</g>
			</g>
		</g>
	</g>
</g>
<g id="Слой_2">
</g>
</svg>
