<?xml version="1.0" encoding="utf-8"?>
<!-- Generator: Adobe Illustrator 23.0.5, SVG Export Plug-In . SVG Version: 6.00 Build 0)  -->
<svg version="1.1" xmlns="http://www.w3.org/2000/svg" xmlns:xlink="http://www.w3.org/1999/xlink" x="0px" y="0px"
	 viewBox="0 0 223.2 386.5" style="enable-background:new 0 0 223.2 386.5;" xml:space="preserve">
<style type="text/css">
	.st0{fill:#426D91;}
	.st1{fill:#4A79A3;}
	.st2{fill:#64A5DB;}
	.st3{fill:#5790C1;}
	.st4{fill:none;}
	.st5{fill:#C9C9C9;}
	.st6{fill:#BCBCBC;}
	.st7{fill:#FFFFFF;}
	.st8{fill:url(#);}
	.st9{fill:#5082B0;}
	.st10{fill:url(#SVGID_1_);}
	.st11{fill:#EFEFEF;}
	.st12{clip-path:url(#SVGID_3_);}
	.st13{clip-path:url(#SVGID_5_);}
	.st14{clip-path:url(#SVGID_7_);}
	.st15{clip-path:url(#SVGID_9_);}
	.st16{clip-path:url(#SVGID_11_);}
	.st17{clip-path:url(#SVGID_13_);fill:#4A79A3;}
	.st18{clip-path:url(#SVGID_13_);fill:#5790C1;}
	.st19{clip-path:url(#SVGID_15_);fill:#4A79A3;}
	.st20{clip-path:url(#SVGID_15_);fill:#5790C1;}
	.st21{clip-path:url(#SVGID_17_);fill:#4A79A3;}
	.st22{clip-path:url(#SVGID_17_);fill:#5790C1;}
	.st23{clip-path:url(#SVGID_19_);fill:#4A79A3;}
	.st24{clip-path:url(#SVGID_19_);fill:#5790C1;}
	.st25{clip-path:url(#SVGID_21_);fill:#4A79A3;}
	.st26{clip-path:url(#SVGID_21_);fill:#5790C1;}
	.st27{clip-path:url(#SVGID_23_);fill:#4A79A3;}
	.st28{clip-path:url(#SVGID_23_);fill:#5790C1;}
	.st29{clip-path:url(#SVGID_25_);fill:#4A79A3;}
	.st30{clip-path:url(#SVGID_25_);fill:#5790C1;}
	.st31{clip-path:url(#SVGID_27_);fill:#4A79A3;}
	.st32{clip-path:url(#SVGID_27_);fill:#5790C1;}
	.st33{clip-path:url(#SVGID_29_);fill:#4A79A3;}
	.st34{clip-path:url(#SVGID_29_);fill:#5790C1;}
	.st35{clip-path:url(#SVGID_31_);fill:#4A79A3;}
	.st36{clip-path:url(#SVGID_31_);fill:#5790C1;}
	.st37{clip-path:url(#SVGID_33_);fill:#4A79A3;}
	.st38{clip-path:url(#SVGID_33_);fill:#5790C1;}
	.st39{clip-path:url(#SVGID_35_);fill:#4A79A3;}
	.st40{clip-path:url(#SVGID_35_);fill:#5790C1;}
	.st41{clip-path:url(#SVGID_37_);fill:#4A79A3;}
	.st42{clip-path:url(#SVGID_37_);fill:#5790C1;}
	.st43{clip-path:url(#SVGID_39_);fill:#4A79A3;}
	.st44{clip-path:url(#SVGID_39_);fill:#5790C1;}
	.st45{clip-path:url(#SVGID_41_);fill:#4A79A3;}
	.st46{clip-path:url(#SVGID_41_);fill:#5790C1;}
	.st47{clip-path:url(#SVGID_43_);fill:#4A79A3;}
	.st48{clip-path:url(#SVGID_43_);fill:#5790C1;}
	.st49{clip-path:url(#SVGID_45_);fill:#4A79A3;}
	.st50{clip-path:url(#SVGID_45_);fill:#5790C1;}
	.st51{clip-path:url(#SVGID_47_);fill:#4A79A3;}
	.st52{clip-path:url(#SVGID_47_);fill:#5790C1;}
	.st53{clip-path:url(#SVGID_49_);fill:#4A79A3;}
	.st54{clip-path:url(#SVGID_49_);fill:#5790C1;}
	.st55{clip-path:url(#SVGID_51_);fill:#4A79A3;}
	.st56{clip-path:url(#SVGID_51_);fill:#5790C1;}
	.st57{clip-path:url(#SVGID_53_);fill:#4A79A3;}
	.st58{clip-path:url(#SVGID_53_);fill:#5790C1;}
	.st59{clip-path:url(#SVGID_55_);fill:#4A79A3;}
	.st60{clip-path:url(#SVGID_55_);fill:#5790C1;}
	.st61{clip-path:url(#SVGID_57_);fill:#4A79A3;}
	.st62{clip-path:url(#SVGID_57_);fill:#5790C1;}
	.st63{clip-path:url(#SVGID_59_);fill:#4A79A3;}
	.st64{clip-path:url(#SVGID_59_);fill:#5790C1;}
	.st65{clip-path:url(#SVGID_61_);fill:#4A79A3;}
	.st66{clip-path:url(#SVGID_61_);fill:#5790C1;}
</style>
<g id="Слой_1">
	<rect y="0" class="st0" width="223.2" height="386.5"/>
	<g>
		<g>
			<defs>
				<rect id="SVGID_2_" x="0" y="0" width="223.2" height="386.5"/>
			</defs>
			<clipPath id="SVGID_1_">
				<use xlink:href="#SVGID_2_"  style="overflow:visible;"/>
			</clipPath>
			<g style="clip-path:url(#SVGID_1_);">
				<g>
					<defs>
						<rect id="SVGID_4_" x="170.8" y="-295.3" width="236.3" height="409.3"/>
					</defs>
					<clipPath id="SVGID_3_">
						<use xlink:href="#SVGID_4_"  style="overflow:visible;"/>
					</clipPath>
					<g class="st12">
						<path class="st4" d="M170.8-22.4L52.7,45.8v136.4l118.2,68.2L289,182.3V45.8L170.8-22.4z M278.5,176.2l-107.6,62.1L63.2,176.2
							V51.9l107.6-62.1l107.6,62.1V176.2z"/>
						<path class="st3" d="M170.8-10.2L63.2,51.9v124.3l107.6,62.1l107.6-62.1V51.9L170.8-10.2z M255.4,162.9l-84.6,48.8l-84.6-48.8
							V65.2l84.6-48.8l84.6,48.8V162.9z"/>
						<path class="st3" d="M170.9,25.1l-77,44.5v89l77,44.5l77-44.5v-89L170.9,25.1z M220.6,142.8l-49.7,28.7l-49.7-28.7V85.3
							l49.7-28.7l49.7,28.7V142.8z"/>
					</g>
					<g class="st12">
						<path class="st4" d="M289-227.1l-118.2,68.2v136.4L289,45.8l118.2-68.2v-136.4L289-227.1z M396.6-28.5L289,33.7L181.4-28.5
							v-124.3L289-214.9l107.6,62.1V-28.5z"/>
						<path class="st3" d="M289-214.9l-107.6,62.1v124.3L289,33.7l107.6-62.1v-124.3L289-214.9z M373.6-41.8L289,7l-84.6-48.8v-97.7
							l84.6-48.8l84.6,48.8V-41.8z"/>
					</g>
				</g>
			</g>
			<g style="clip-path:url(#SVGID_1_);">
				<g>
					<defs>
						<rect id="SVGID_6_" x="170.8" y="114" width="236.3" height="409.3"/>
					</defs>
					<clipPath id="SVGID_5_">
						<use xlink:href="#SVGID_6_"  style="overflow:visible;"/>
					</clipPath>
					<g class="st13">
						<path class="st4" d="M289,182.3l-118.2,68.2v136.4L289,455.1l118.2-68.2V250.5L289,182.3z M396.6,380.8L289,443l-107.6-62.1
							V256.6L289,194.4l107.6,62.1V380.8z"/>
						<path class="st3" d="M289,194.4l-107.6,62.1v124.3L289,443l107.6-62.1V256.6L289,194.4z M373.6,367.5L289,416.4l-84.6-48.8
							v-97.7L289,221l84.6,48.8V367.5z"/>
						<path class="st3" d="M289,229.7l-77,44.5v89l77,44.5l77-44.5v-89L289,229.7z M338.7,347.4L289,376.1l-49.7-28.7V290l49.7-28.7
							l49.7,28.7V347.4z"/>
					</g>
					<g class="st13">
						<path class="st4" d="M170.8-22.4L52.7,45.8v136.4l118.2,68.2L289,182.3V45.8L170.8-22.4z M278.5,176.2l-107.6,62.1L63.2,176.2
							V51.9l107.6-62.1l107.6,62.1V176.2z"/>
						<path class="st3" d="M170.8-10.2L63.2,51.9v124.3l107.6,62.1l107.6-62.1V51.9L170.8-10.2z M255.4,162.9l-84.6,48.8l-84.6-48.8
							V65.2l84.6-48.8l84.6,48.8V162.9z"/>
						<path class="st3" d="M170.9,25.1l-77,44.5v89l77,44.5l77-44.5v-89L170.9,25.1z M220.6,142.8l-49.7,28.7l-49.7-28.7V85.3
							l49.7-28.7l49.7,28.7V142.8z"/>
					</g>
				</g>
			</g>
			<g style="clip-path:url(#SVGID_1_);">
				<g>
					<defs>
						<rect id="SVGID_8_" x="-65.5" y="-295.3" width="236.3" height="409.3"/>
					</defs>
					<clipPath id="SVGID_7_">
						<use xlink:href="#SVGID_8_"  style="overflow:visible;"/>
					</clipPath>
					<g class="st14">
						<path class="st4" d="M170.8-22.4L52.7,45.8v136.4l118.2,68.2L289,182.3V45.8L170.8-22.4z M278.5,176.2l-107.6,62.1L63.2,176.2
							V51.9l107.6-62.1l107.6,62.1V176.2z"/>
						<path class="st3" d="M170.8-10.2L63.2,51.9v124.3l107.6,62.1l107.6-62.1V51.9L170.8-10.2z M255.4,162.9l-84.6,48.8l-84.6-48.8
							V65.2l84.6-48.8l84.6,48.8V162.9z"/>
						<path class="st3" d="M170.9,25.1l-77,44.5v89l77,44.5l77-44.5v-89L170.9,25.1z M220.6,142.8l-49.7,28.7l-49.7-28.7V85.3
							l49.7-28.7l49.7,28.7V142.8z"/>
					</g>
					<g class="st14">
						<path class="st4" d="M-65.5-22.4l-118.2,68.2v136.4l118.2,68.2l118.2-68.2V45.8L-65.5-22.4z M42.2,176.2l-107.6,62.1
							l-107.6-62.1V51.9l107.6-62.1L42.2,51.9V176.2z"/>
						<path class="st3" d="M-65.5-10.2l-107.6,62.1v124.3l107.6,62.1l107.6-62.1V51.9L-65.5-10.2z M19.1,162.9l-84.6,48.8
							l-84.6-48.8V65.2l84.6-48.8l84.6,48.8V162.9z"/>
						<path class="st3" d="M-65.5,25.1l-77,44.5v89l77,44.5l77-44.5v-89L-65.5,25.1z M-15.7,142.8l-49.7,28.7l-49.7-28.7V85.3
							l49.7-28.7l49.7,28.7V142.8z"/>
					</g>
					<g class="st14">
						<path class="st4" d="M52.7-227.1l-118.2,68.2v136.4L52.7,45.8l118.2-68.2v-136.4L52.7-227.1z M160.3-28.5L52.7,33.7
							L-54.9-28.5v-124.3l107.6-62.1l107.6,62.1V-28.5z"/>
						<path class="st3" d="M52.7-214.9l-107.6,62.1v124.3L52.7,33.7l107.6-62.1v-124.3L52.7-214.9z M137.3-41.8L52.7,7l-84.6-48.8
							v-97.7l84.6-48.8l84.6,48.8V-41.8z"/>
					</g>
				</g>
			</g>
			<g style="clip-path:url(#SVGID_1_);">
				<g>
					<defs>
						<rect id="SVGID_10_" x="-65.5" y="114" width="236.3" height="409.3"/>
					</defs>
					<clipPath id="SVGID_9_">
						<use xlink:href="#SVGID_10_"  style="overflow:visible;"/>
					</clipPath>
					<g class="st15">
						<path class="st4" d="M52.7,182.3l-118.2,68.2v136.4l118.2,68.2l118.2-68.2V250.5L52.7,182.3z M160.3,380.8L52.7,443
							l-107.6-62.1V256.6l107.6-62.1l107.6,62.1V380.8z"/>
						<path class="st3" d="M52.7,194.4l-107.6,62.1v124.3L52.7,443l107.6-62.1V256.6L52.7,194.4z M137.3,367.5l-84.6,48.8
							l-84.6-48.8v-97.7L52.7,221l84.6,48.8V367.5z"/>
						<path class="st3" d="M52.7,229.7l-77,44.5v89l77,44.5l77-44.5v-89L52.7,229.7z M102.4,347.4l-49.7,28.7L3,347.4V290l49.7-28.7
							l49.7,28.7V347.4z"/>
					</g>
					<g class="st15">
						<path class="st4" d="M170.8-22.4L52.7,45.8v136.4l118.2,68.2L289,182.3V45.8L170.8-22.4z M278.5,176.2l-107.6,62.1L63.2,176.2
							V51.9l107.6-62.1l107.6,62.1V176.2z"/>
						<path class="st3" d="M170.8-10.2L63.2,51.9v124.3l107.6,62.1l107.6-62.1V51.9L170.8-10.2z M255.4,162.9l-84.6,48.8l-84.6-48.8
							V65.2l84.6-48.8l84.6,48.8V162.9z"/>
						<path class="st3" d="M170.9,25.1l-77,44.5v89l77,44.5l77-44.5v-89L170.9,25.1z M220.6,142.8l-49.7,28.7l-49.7-28.7V85.3
							l49.7-28.7l49.7,28.7V142.8z"/>
					</g>
					<g class="st15">
						<path class="st4" d="M-65.5-22.4l-118.2,68.2v136.4l118.2,68.2l118.2-68.2V45.8L-65.5-22.4z M42.2,176.2l-107.6,62.1
							l-107.6-62.1V51.9l107.6-62.1L42.2,51.9V176.2z"/>
						<path class="st3" d="M-65.5-10.2l-107.6,62.1v124.3l107.6,62.1l107.6-62.1V51.9L-65.5-10.2z M19.1,162.9l-84.6,48.8
							l-84.6-48.8V65.2l84.6-48.8l84.6,48.8V162.9z"/>
						<path class="st3" d="M-65.5,25.1l-77,44.5v89l77,44.5l77-44.5v-89L-65.5,25.1z M-15.7,142.8l-49.7,28.7l-49.7-28.7V85.3
							l49.7-28.7l49.7,28.7V142.8z"/>
					</g>
				</g>
			</g>
		</g>
	</g>
</g>
<g id="Слой_2">
</g>
</svg>
