<?xml version="1.0" encoding="utf-8"?>
<!-- Generator: Adobe Illustrator 23.0.5, SVG Export Plug-In . SVG Version: 6.00 Build 0)  -->
<svg version="1.1" xmlns="http://www.w3.org/2000/svg" xmlns:xlink="http://www.w3.org/1999/xlink" x="0px" y="0px"
	 viewBox="0 0 223.2 386.5" style="enable-background:new 0 0 223.2 386.5;" xml:space="preserve">
<style type="text/css">
	.st0{fill:#426D91;}
	.st1{fill:#4A79A3;}
	.st2{fill:#64A5DB;}
	.st3{fill:#5790C1;}
	.st4{fill:none;}
	.st5{fill:#C9C9C9;}
	.st6{fill:#BCBCBC;}
	.st7{fill:#FFFFFF;}
	.st8{fill:url(#);}
	.st9{fill:#5082B0;}
	.st10{fill:url(#SVGID_1_);}
	.st11{fill:#EFEFEF;}
	.st12{clip-path:url(#SVGID_3_);}
	.st13{clip-path:url(#SVGID_5_);fill:none;}
	.st14{clip-path:url(#SVGID_5_);fill:#5790C1;}
	.st15{clip-path:url(#SVGID_7_);fill:none;}
	.st16{clip-path:url(#SVGID_7_);fill:#5790C1;}
	.st17{clip-path:url(#SVGID_9_);fill:none;}
	.st18{clip-path:url(#SVGID_9_);fill:#5790C1;}
	.st19{clip-path:url(#SVGID_11_);fill:none;}
	.st20{clip-path:url(#SVGID_11_);fill:#5790C1;}
	.st21{clip-path:url(#SVGID_13_);fill:#4A79A3;}
	.st22{clip-path:url(#SVGID_13_);fill:#5790C1;}
	.st23{clip-path:url(#SVGID_15_);fill:#4A79A3;}
	.st24{clip-path:url(#SVGID_15_);fill:#5790C1;}
	.st25{clip-path:url(#SVGID_17_);fill:#4A79A3;}
	.st26{clip-path:url(#SVGID_17_);fill:#5790C1;}
	.st27{clip-path:url(#SVGID_19_);fill:#4A79A3;}
	.st28{clip-path:url(#SVGID_19_);fill:#5790C1;}
	.st29{clip-path:url(#SVGID_21_);fill:#4A79A3;}
	.st30{clip-path:url(#SVGID_21_);fill:#5790C1;}
	.st31{clip-path:url(#SVGID_23_);fill:#4A79A3;}
	.st32{clip-path:url(#SVGID_23_);fill:#5790C1;}
	.st33{clip-path:url(#SVGID_25_);fill:#4A79A3;}
	.st34{clip-path:url(#SVGID_25_);fill:#5790C1;}
	.st35{clip-path:url(#SVGID_27_);fill:#4A79A3;}
	.st36{clip-path:url(#SVGID_27_);fill:#5790C1;}
	.st37{clip-path:url(#SVGID_29_);fill:#4A79A3;}
	.st38{clip-path:url(#SVGID_29_);fill:#5790C1;}
	.st39{clip-path:url(#SVGID_31_);fill:#4A79A3;}
	.st40{clip-path:url(#SVGID_31_);fill:#5790C1;}
	.st41{clip-path:url(#SVGID_33_);fill:#4A79A3;}
	.st42{clip-path:url(#SVGID_33_);fill:#5790C1;}
	.st43{clip-path:url(#SVGID_35_);fill:#4A79A3;}
	.st44{clip-path:url(#SVGID_35_);fill:#5790C1;}
	.st45{clip-path:url(#SVGID_37_);fill:#4A79A3;}
	.st46{clip-path:url(#SVGID_37_);fill:#5790C1;}
	.st47{clip-path:url(#SVGID_39_);fill:#4A79A3;}
	.st48{clip-path:url(#SVGID_39_);fill:#5790C1;}
	.st49{clip-path:url(#SVGID_41_);fill:#4A79A3;}
	.st50{clip-path:url(#SVGID_41_);fill:#5790C1;}
	.st51{clip-path:url(#SVGID_43_);fill:#4A79A3;}
	.st52{clip-path:url(#SVGID_43_);fill:#5790C1;}
	.st53{clip-path:url(#SVGID_45_);fill:#4A79A3;}
	.st54{clip-path:url(#SVGID_45_);fill:#5790C1;}
	.st55{clip-path:url(#SVGID_47_);fill:#4A79A3;}
	.st56{clip-path:url(#SVGID_47_);fill:#5790C1;}
	.st57{clip-path:url(#SVGID_49_);fill:#4A79A3;}
	.st58{clip-path:url(#SVGID_49_);fill:#5790C1;}
	.st59{clip-path:url(#SVGID_51_);fill:#4A79A3;}
	.st60{clip-path:url(#SVGID_51_);fill:#5790C1;}
	.st61{clip-path:url(#SVGID_53_);fill:#4A79A3;}
	.st62{clip-path:url(#SVGID_53_);fill:#5790C1;}
	.st63{clip-path:url(#SVGID_55_);fill:#4A79A3;}
	.st64{clip-path:url(#SVGID_55_);fill:#5790C1;}
	.st65{clip-path:url(#SVGID_57_);fill:#4A79A3;}
	.st66{clip-path:url(#SVGID_57_);fill:#5790C1;}
	.st67{clip-path:url(#SVGID_59_);fill:#4A79A3;}
	.st68{clip-path:url(#SVGID_59_);fill:#5790C1;}
	.st69{clip-path:url(#SVGID_61_);fill:#4A79A3;}
	.st70{clip-path:url(#SVGID_61_);fill:#5790C1;}
</style>
<g id="Слой_1">
	<rect class="st0" width="223.2" height="386.5"/>
	<g>
		<defs>
			<rect id="SVGID_2_" x="0" y="0" width="223.2" height="386.5"/>
		</defs>
		<clipPath id="SVGID_1_">
			<use xlink:href="#SVGID_2_"  style="overflow:visible;"/>
		</clipPath>
		<g style="clip-path:url(#SVGID_1_);">
			<defs>
				<rect id="SVGID_4_" x="222.9" y="-114" width="223.1" height="386.5"/>
			</defs>
			<clipPath id="SVGID_3_">
				<use xlink:href="#SVGID_4_"  style="overflow:visible;"/>
			</clipPath>
			<path style="clip-path:url(#SVGID_3_);fill:none;" d="M222.9,143.7l-111.6,64.4V337l111.6,64.4L334.5,337V208.1L222.9,143.7z
				 M324.6,331.2l-101.6,58.7l-101.6-58.7V213.9l101.6-58.7l101.6,58.7V331.2z"/>
			<path style="clip-path:url(#SVGID_3_);fill:#5790C1;" d="M222.9,180.3l-79.9,46.1v92.2l79.9,46.1l79.9-46.1v-92.2L222.9,180.3z
				 M274.4,302.3L222.9,332l-51.4-29.7v-59.4l51.4-29.7l51.4,29.7V302.3z"/>
			<polygon style="clip-path:url(#SVGID_3_);fill:#5790C1;" points="256.1,253.4 256.1,291.7 222.9,310.9 189.7,291.7 189.7,253.4 
				222.9,234.2 			"/>
			<path style="clip-path:url(#SVGID_3_);fill:none;" d="M334.5-49.5L222.9,14.9v128.8l111.6,64.4l111.6-64.4V14.9L334.5-49.5z
				 M436.1,138l-101.6,58.7L232.9,138V20.6l101.6-58.7l101.6,58.7V138z"/>
			<path style="clip-path:url(#SVGID_3_);fill:none;" d="M222.9-242.8l-111.6,64.4v128.8l111.6,64.4l111.6-64.4v-128.8L222.9-242.8z
				 M324.6-55.3L222.9,3.4L121.3-55.3v-117.4l101.6-58.7l101.6,58.7V-55.3z"/>
		</g>
		<g style="clip-path:url(#SVGID_1_);">
			<defs>
				<rect id="SVGID_6_" x="222.9" y="272.6" width="223.1" height="386.5"/>
			</defs>
			<clipPath id="SVGID_5_">
				<use xlink:href="#SVGID_6_"  style="overflow:visible;"/>
			</clipPath>
			<path class="st13" d="M334.5,337l-111.6,64.4v128.8l111.6,64.4l111.6-64.4V401.4L334.5,337z M436.1,524.5l-101.6,58.7
				l-101.6-58.7V407.1l101.6-58.7l101.6,58.7V524.5z"/>
			<path class="st13" d="M222.9,143.7l-111.6,64.4V337l111.6,64.4L334.5,337V208.1L222.9,143.7z M324.6,331.2l-101.6,58.7
				l-101.6-58.7V213.9l101.6-58.7l101.6,58.7V331.2z"/>
			<path class="st14" d="M222.9,180.3l-79.9,46.1v92.2l79.9,46.1l79.9-46.1v-92.2L222.9,180.3z M274.4,302.3L222.9,332l-51.4-29.7
				v-59.4l51.4-29.7l51.4,29.7V302.3z"/>
			<polygon class="st14" points="256.1,253.4 256.1,291.7 222.9,310.9 189.7,291.7 189.7,253.4 222.9,234.2 			"/>
		</g>
		<g style="clip-path:url(#SVGID_1_);">
			<defs>
				<rect id="SVGID_8_" x="-0.2" y="-114" width="223.1" height="386.5"/>
			</defs>
			<clipPath id="SVGID_7_">
				<use xlink:href="#SVGID_8_"  style="overflow:visible;"/>
			</clipPath>
			<path class="st15" d="M222.9,143.7l-111.6,64.4V337l111.6,64.4L334.5,337V208.1L222.9,143.7z M324.6,331.2l-101.6,58.7
				l-101.6-58.7V213.9l101.6-58.7l101.6,58.7V331.2z"/>
			<path class="st16" d="M222.9,180.3l-79.9,46.1v92.2l79.9,46.1l79.9-46.1v-92.2L222.9,180.3z M274.4,302.3L222.9,332l-51.4-29.7
				v-59.4l51.4-29.7l51.4,29.7V302.3z"/>
			<polygon class="st16" points="256.1,253.4 256.1,291.7 222.9,310.9 189.7,291.7 189.7,253.4 222.9,234.2 			"/>
			<path class="st15" d="M-0.2,143.7l-111.6,64.4V337l111.6,64.4L111.3,337V208.1L-0.2,143.7z M101.4,331.2L-0.2,389.9l-101.6-58.7
				V213.9l101.6-58.7l101.6,58.7V331.2z"/>
			<path class="st16" d="M-0.2,180.3l-79.9,46.1v92.2l79.9,46.1l79.9-46.1v-92.2L-0.2,180.3z M51.2,302.3L-0.2,332l-51.4-29.7v-59.4
				l51.4-29.7l51.4,29.7V302.3z"/>
			<polygon class="st16" points="33,253.4 33,291.7 -0.2,310.9 -33.4,291.7 -33.4,253.4 -0.2,234.2 			"/>
			<path class="st15" d="M111.3-49.5L-0.2,14.9v128.8l111.6,64.4l111.6-64.4V14.9L111.3-49.5z M213,138l-101.6,58.7L9.7,138V20.6
				l101.6-58.7L213,20.6V138z"/>
			<path class="st16" d="M111.4-12.9L31.5,33.2v92.2l79.9,46.1l79.9-46.1V33.2L111.4-12.9z M162.8,109l-51.4,29.7L59.9,109V49.6
				l51.4-29.7l51.4,29.7V109z"/>
			<polygon class="st16" points="144.6,60.1 144.6,98.5 111.4,117.7 78.1,98.5 78.1,60.1 111.4,40.9 			"/>
			<path class="st15" d="M222.9-242.8l-111.6,64.4v128.8l111.6,64.4l111.6-64.4v-128.8L222.9-242.8z M324.6-55.3L222.9,3.4
				L121.3-55.3v-117.4l101.6-58.7l101.6,58.7V-55.3z"/>
			<path class="st15" d="M-0.2-242.8l-111.6,64.4v128.8L-0.2,14.9l111.6-64.4v-128.8L-0.2-242.8z M101.4-55.3L-0.2,3.4l-101.6-58.7
				v-117.4l101.6-58.7l101.6,58.7V-55.3z"/>
		</g>
		<g style="clip-path:url(#SVGID_1_);">
			<defs>
				<rect id="SVGID_10_" x="-0.2" y="272.6" width="223.1" height="386.5"/>
			</defs>
			<clipPath id="SVGID_9_">
				<use xlink:href="#SVGID_10_"  style="overflow:visible;"/>
			</clipPath>
			<path class="st17" d="M111.3,337L-0.2,401.4v128.8l111.6,64.4l111.6-64.4V401.4L111.3,337z M213,524.5l-101.6,58.7L9.7,524.5
				V407.1l101.6-58.7L213,407.1V524.5z"/>
			<path class="st18" d="M111.4,373.6l-79.9,46.1v92.2l79.9,46.1l79.9-46.1v-92.2L111.4,373.6z M162.8,495.5l-51.4,29.7l-51.4-29.7
				v-59.4l51.4-29.7l51.4,29.7V495.5z"/>
			<path class="st17" d="M222.9,143.7l-111.6,64.4V337l111.6,64.4L334.5,337V208.1L222.9,143.7z M324.6,331.2l-101.6,58.7
				l-101.6-58.7V213.9l101.6-58.7l101.6,58.7V331.2z"/>
			<path class="st18" d="M222.9,180.3l-79.9,46.1v92.2l79.9,46.1l79.9-46.1v-92.2L222.9,180.3z M274.4,302.3L222.9,332l-51.4-29.7
				v-59.4l51.4-29.7l51.4,29.7V302.3z"/>
			<polygon class="st18" points="256.1,253.4 256.1,291.7 222.9,310.9 189.7,291.7 189.7,253.4 222.9,234.2 			"/>
			<path class="st17" d="M-0.2,143.7l-111.6,64.4V337l111.6,64.4L111.3,337V208.1L-0.2,143.7z M101.4,331.2L-0.2,389.9l-101.6-58.7
				V213.9l101.6-58.7l101.6,58.7V331.2z"/>
			<path class="st18" d="M-0.2,180.3l-79.9,46.1v92.2l79.9,46.1l79.9-46.1v-92.2L-0.2,180.3z M51.2,302.3L-0.2,332l-51.4-29.7v-59.4
				l51.4-29.7l51.4,29.7V302.3z"/>
			<polygon class="st18" points="33,253.4 33,291.7 -0.2,310.9 -33.4,291.7 -33.4,253.4 -0.2,234.2 			"/>
		</g>
	</g>
</g>
<g id="Слой_2">
</g>
</svg>
