<?xml version="1.0" encoding="utf-8"?>
<!-- Generator: Adobe Illustrator 23.0.5, SVG Export Plug-In . SVG Version: 6.00 Build 0)  -->
<svg version="1.1" xmlns="http://www.w3.org/2000/svg" xmlns:xlink="http://www.w3.org/1999/xlink" x="0px" y="0px"
	 viewBox="0 0 223.2 386.5" style="enable-background:new 0 0 223.2 386.5;" xml:space="preserve">
<style type="text/css">
	.st0{fill:none;}
	.st1{fill:#5790C1;}
	.st2{fill:#426D91;}
	.st3{fill:#4A79A3;}
	.st4{fill:#64A5DB;}
	.st5{fill:#C9C9C9;}
	.st6{fill:#BCBCBC;}
	.st7{fill:#FFFFFF;}
	.st8{fill:url(#);}
	.st9{fill:url(#SVGID_1_);}
	.st10{opacity:0.25;fill:url(#SVGID_2_);}
	.st11{opacity:0.1;fill:url(#);}
	.st12{fill:#5082B0;}
	.st13{fill:url(#SVGID_3_);}
	.st14{fill:#EFEFEF;}
	.st15{fill:url(#SVGID_4_);}
	.st16{fill:url(#SVGID_5_);}
	.st17{fill:url(#SVGID_6_);}
	.st18{fill:#2490C3;}
	.st19{fill:#2080AD;}
	.st20{fill:#1C7098;}
	.st21{fill:#186082;}
	.st22{fill:#14506C;}
	.st23{fill:#104057;}
	.st24{fill:#0C3041;}
	.st25{fill:#08202B;}
	.st26{fill:#041016;}
	.st27{opacity:0.28;fill:url(#Новый_узор_10);}
	.st28{clip-path:url(#SVGID_8_);fill:#4A79A3;}
	.st29{clip-path:url(#SVGID_8_);fill:#5790C1;}
	.st30{clip-path:url(#SVGID_10_);fill:#4A79A3;}
	.st31{clip-path:url(#SVGID_10_);fill:#5790C1;}
	.st32{clip-path:url(#SVGID_12_);fill:#4A79A3;}
	.st33{clip-path:url(#SVGID_12_);fill:#5790C1;}
	.st34{clip-path:url(#SVGID_14_);fill:#4A79A3;}
	.st35{clip-path:url(#SVGID_14_);fill:#5790C1;}
	.st36{clip-path:url(#SVGID_16_);fill:#4A79A3;}
	.st37{clip-path:url(#SVGID_16_);fill:#5790C1;}
	.st38{clip-path:url(#SVGID_18_);fill:#4A79A3;}
	.st39{clip-path:url(#SVGID_18_);fill:#5790C1;}
	.st40{clip-path:url(#SVGID_20_);fill:#4A79A3;}
	.st41{clip-path:url(#SVGID_20_);fill:#5790C1;}
	.st42{clip-path:url(#SVGID_22_);fill:#4A79A3;}
	.st43{clip-path:url(#SVGID_22_);fill:#5790C1;}
	.st44{clip-path:url(#SVGID_24_);fill:#4A79A3;}
	.st45{clip-path:url(#SVGID_24_);fill:#5790C1;}
	.st46{clip-path:url(#SVGID_26_);fill:#4A79A3;}
	.st47{clip-path:url(#SVGID_26_);fill:#5790C1;}
	.st48{clip-path:url(#SVGID_28_);fill:#4A79A3;}
	.st49{clip-path:url(#SVGID_28_);fill:#5790C1;}
	.st50{clip-path:url(#SVGID_30_);fill:#4A79A3;}
	.st51{clip-path:url(#SVGID_30_);fill:#5790C1;}
	.st52{clip-path:url(#SVGID_32_);fill:#4A79A3;}
	.st53{clip-path:url(#SVGID_32_);fill:#5790C1;}
	.st54{clip-path:url(#SVGID_34_);fill:#4A79A3;}
	.st55{clip-path:url(#SVGID_34_);fill:#5790C1;}
	.st56{clip-path:url(#SVGID_36_);fill:#4A79A3;}
	.st57{clip-path:url(#SVGID_36_);fill:#5790C1;}
	.st58{clip-path:url(#SVGID_38_);fill:#4A79A3;}
	.st59{clip-path:url(#SVGID_38_);fill:#5790C1;}
	.st60{clip-path:url(#SVGID_40_);fill:#4A79A3;}
	.st61{clip-path:url(#SVGID_40_);fill:#5790C1;}
	.st62{clip-path:url(#SVGID_42_);fill:#4A79A3;}
	.st63{clip-path:url(#SVGID_42_);fill:#5790C1;}
	.st64{clip-path:url(#SVGID_44_);fill:#4A79A3;}
	.st65{clip-path:url(#SVGID_44_);fill:#5790C1;}
	.st66{clip-path:url(#SVGID_46_);fill:#4A79A3;}
	.st67{clip-path:url(#SVGID_46_);fill:#5790C1;}
	.st68{clip-path:url(#SVGID_48_);fill:#4A79A3;}
	.st69{clip-path:url(#SVGID_48_);fill:#5790C1;}
	.st70{clip-path:url(#SVGID_50_);fill:#4A79A3;}
	.st71{clip-path:url(#SVGID_50_);fill:#5790C1;}
	.st72{clip-path:url(#SVGID_52_);fill:#4A79A3;}
	.st73{clip-path:url(#SVGID_52_);fill:#5790C1;}
	.st74{clip-path:url(#SVGID_54_);fill:#4A79A3;}
	.st75{clip-path:url(#SVGID_54_);fill:#5790C1;}
	.st76{clip-path:url(#SVGID_56_);fill:#4A79A3;}
	.st77{clip-path:url(#SVGID_56_);fill:#5790C1;}
</style>
<pattern  x="-3165.2" y="-3979.2" width="223.2" height="386.5" patternUnits="userSpaceOnUse" id="Новый_узор_10" viewBox="111.6 -515.4 223.2 386.5" style="overflow:visible;">
	<g>
		<rect x="111.6" y="-515.4" class="st0" width="223.2" height="386.5"/>
		<g>
			<path class="st0" d="M446.3-193.3v128.8L334.7,0L223.2-64.4v-128.8l111.6-64.4L446.3-193.3z M436.4-187.5l-101.6-58.7
				l-101.6,58.7v117.4l101.6,58.7l101.6-58.7V-187.5z"/>
			<path class="st1" d="M414.6-175v92.2l-79.9,46.1l-79.9-46.1V-175l79.9-46.1L414.6-175z M386.2-158.5l-51.4-29.7l-51.5,29.7v59.4
				l51.5,29.7l51.4-29.7V-158.5z"/>
			<polygon class="st1" points="368,-148 368,-109.7 334.7,-90.5 301.5,-109.7 301.5,-148 334.7,-167.2 			"/>
		</g>
		<g>
			<path class="st0" d="M223.2-193.3v128.8L111.6,0L0-64.4v-128.8l111.6-64.4L223.2-193.3z M213.2-187.5l-101.6-58.7L9.9-187.5
				v117.4l101.6,58.7l101.6-58.7V-187.5z"/>
			<path class="st1" d="M191.5-175v92.2l-79.9,46.1L31.7-82.7V-175l79.9-46.1L191.5-175z M163-158.5l-51.4-29.7l-51.5,29.7v59.4
				l51.5,29.7L163-99.1V-158.5z"/>
			<polygon class="st1" points="144.8,-148 144.8,-109.7 111.6,-90.5 78.4,-109.7 78.4,-148 111.6,-167.2 			"/>
		</g>
		<g>
			<path class="st0" d="M334.7-386.5v128.8l-111.6,64.4l-111.6-64.4v-128.8l111.6-64.4L334.7-386.5z M324.8-380.8l-101.6-58.7
				l-101.6,58.7v117.4l101.6,58.7l101.6-58.7V-380.8z"/>
			<path class="st1" d="M303-368.2v92.2l-79.9,46.1L143.3-276v-92.2l79.9-46.1L303-368.2z M274.6-351.8l-51.4-29.7l-51.5,29.7v59.4
				l51.5,29.7l51.4-29.7V-351.8z"/>
			<polygon class="st1" points="256.4,-341.3 256.4,-302.9 223.2,-283.7 189.9,-302.9 189.9,-341.3 223.2,-360.5 			"/>
		</g>
		<g>
			<path class="st0" d="M446.3-579.8v128.8l-111.6,64.4l-111.6-64.4v-128.8l111.6-64.4L446.3-579.8z M436.4-574l-101.6-58.7
				L233.1-574v117.4L334.7-398l101.6-58.7V-574z"/>
			<path class="st1" d="M414.6-561.5v92.2l-79.9,46.1l-79.9-46.1v-92.2l79.9-46.1L414.6-561.5z M386.2-545.1l-51.4-29.7l-51.5,29.7
				v59.4l51.5,29.7l51.4-29.7V-545.1z"/>
			<polygon class="st1" points="368,-534.5 368,-496.2 334.7,-477 301.5,-496.2 301.5,-534.5 334.7,-553.7 			"/>
		</g>
		<g>
			<path class="st0" d="M223.2-579.8v128.8l-111.6,64.4L0-450.9v-128.8l111.6-64.4L223.2-579.8z M213.2-574l-101.6-58.7L9.9-574
				v117.4L111.6-398l101.6-58.7V-574z"/>
			<path class="st1" d="M191.5-561.5v92.2l-79.9,46.1l-79.9-46.1v-92.2l79.9-46.1L191.5-561.5z M163-545.1l-51.4-29.7l-51.5,29.7
				v59.4l51.5,29.7l51.4-29.7V-545.1z"/>
			<polygon class="st1" points="144.8,-534.5 144.8,-496.2 111.6,-477 78.4,-496.2 78.4,-534.5 111.6,-553.7 			"/>
		</g>
	</g>
</pattern>
<g id="Слой_1">
	<rect width="223.2" height="386.5"/>
	<rect class="st27" width="223.2" height="386.5"/>
</g>
<g id="Слой_2">
</g>
</svg>
