<?xml version="1.0" encoding="utf-8"?>
<!-- Generator: Adobe Illustrator 23.0.5, SVG Export Plug-In . SVG Version: 6.00 Build 0)  -->
<svg version="1.1" xmlns="http://www.w3.org/2000/svg" xmlns:xlink="http://www.w3.org/1999/xlink" x="0px" y="0px"
	 viewBox="0 0 223.2 386.5" style="enable-background:new 0 0 223.2 386.5;" xml:space="preserve">
<style type="text/css">
	.st0{fill:none;}
	.st1{fill:#426D91;}
	.st2{fill:#5790C1;}
	.st3{fill:#4A79A3;}
	.st4{fill:#64A5DB;}
	.st5{fill:url(#Новый_узор_4);}
	.st6{fill:#C9C9C9;}
	.st7{fill:#BCBCBC;}
	.st8{fill:#FFFFFF;}
	.st9{fill:url(#);}
	.st10{opacity:0.25;fill:url(#);}
	.st11{opacity:0.1;fill:url(#);}
	.st12{fill:#5082B0;}
	.st13{fill:url(#SVGID_1_);}
	.st14{fill:#EFEFEF;}
	.st15{fill:#2490C3;}
	.st16{fill:#2080AD;}
	.st17{fill:#1C7098;}
	.st18{fill:#186082;}
	.st19{fill:#14506C;}
	.st20{fill:#104057;}
	.st21{fill:#0C3041;}
	.st22{fill:#08202B;}
	.st23{fill:#041016;}
	.st24{clip-path:url(#SVGID_3_);fill:#4A79A3;}
	.st25{clip-path:url(#SVGID_3_);fill:#5790C1;}
	.st26{clip-path:url(#SVGID_5_);fill:#4A79A3;}
	.st27{clip-path:url(#SVGID_5_);fill:#5790C1;}
	.st28{clip-path:url(#SVGID_7_);fill:#4A79A3;}
	.st29{clip-path:url(#SVGID_7_);fill:#5790C1;}
	.st30{clip-path:url(#SVGID_9_);fill:#4A79A3;}
	.st31{clip-path:url(#SVGID_9_);fill:#5790C1;}
	.st32{clip-path:url(#SVGID_11_);fill:#4A79A3;}
	.st33{clip-path:url(#SVGID_11_);fill:#5790C1;}
	.st34{clip-path:url(#SVGID_13_);fill:#4A79A3;}
	.st35{clip-path:url(#SVGID_13_);fill:#5790C1;}
	.st36{clip-path:url(#SVGID_15_);fill:#4A79A3;}
	.st37{clip-path:url(#SVGID_15_);fill:#5790C1;}
	.st38{clip-path:url(#SVGID_17_);fill:#4A79A3;}
	.st39{clip-path:url(#SVGID_17_);fill:#5790C1;}
	.st40{clip-path:url(#SVGID_19_);fill:#4A79A3;}
	.st41{clip-path:url(#SVGID_19_);fill:#5790C1;}
	.st42{clip-path:url(#SVGID_21_);fill:#4A79A3;}
	.st43{clip-path:url(#SVGID_21_);fill:#5790C1;}
	.st44{clip-path:url(#SVGID_23_);fill:#4A79A3;}
	.st45{clip-path:url(#SVGID_23_);fill:#5790C1;}
	.st46{clip-path:url(#SVGID_25_);fill:#4A79A3;}
	.st47{clip-path:url(#SVGID_25_);fill:#5790C1;}
	.st48{clip-path:url(#SVGID_27_);fill:#4A79A3;}
	.st49{clip-path:url(#SVGID_27_);fill:#5790C1;}
	.st50{clip-path:url(#SVGID_29_);fill:#4A79A3;}
	.st51{clip-path:url(#SVGID_29_);fill:#5790C1;}
	.st52{clip-path:url(#SVGID_31_);fill:#4A79A3;}
	.st53{clip-path:url(#SVGID_31_);fill:#5790C1;}
	.st54{clip-path:url(#SVGID_33_);fill:#4A79A3;}
	.st55{clip-path:url(#SVGID_33_);fill:#5790C1;}
	.st56{clip-path:url(#SVGID_35_);fill:#4A79A3;}
	.st57{clip-path:url(#SVGID_35_);fill:#5790C1;}
	.st58{clip-path:url(#SVGID_37_);fill:#4A79A3;}
	.st59{clip-path:url(#SVGID_37_);fill:#5790C1;}
	.st60{clip-path:url(#SVGID_39_);fill:#4A79A3;}
	.st61{clip-path:url(#SVGID_39_);fill:#5790C1;}
	.st62{clip-path:url(#SVGID_41_);fill:#4A79A3;}
	.st63{clip-path:url(#SVGID_41_);fill:#5790C1;}
	.st64{clip-path:url(#SVGID_43_);fill:#4A79A3;}
	.st65{clip-path:url(#SVGID_43_);fill:#5790C1;}
	.st66{clip-path:url(#SVGID_45_);fill:#4A79A3;}
	.st67{clip-path:url(#SVGID_45_);fill:#5790C1;}
	.st68{clip-path:url(#SVGID_47_);fill:#4A79A3;}
	.st69{clip-path:url(#SVGID_47_);fill:#5790C1;}
	.st70{clip-path:url(#SVGID_49_);fill:#4A79A3;}
	.st71{clip-path:url(#SVGID_49_);fill:#5790C1;}
	.st72{clip-path:url(#SVGID_51_);fill:#4A79A3;}
	.st73{clip-path:url(#SVGID_51_);fill:#5790C1;}
</style>
<pattern  x="-3165.2" y="-3979.2" width="223.2" height="386.5" patternUnits="userSpaceOnUse" id="Новый_узор_4" viewBox="111.6 -515.4 223.2 386.5" style="overflow:visible;">
	<g>
		<rect x="111.6" y="-515.4" class="st0" width="223.2" height="386.5"/>
		<g>
			<polygon class="st1" points="334.7,-257.7 306.9,-209.4 297.5,-193.3 279,-161.1 223.2,-193.2 223.2,-193.3 223.3,-193.4 			"/>
			<polygon class="st1" points="446.2,-193.2 446.2,-64.6 390.5,-32.5 390.5,-96.8 390.5,-96.8 390.3,-96.7 334.7,-64.6 
				334.7,-64.6 279.1,-96.7 279,-96.8 279,-96.8 279,-32.5 223.2,-64.6 223.2,-193.2 279,-161.1 297.5,-193.3 306.9,-209.4 
				334.7,-257.7 362.6,-209.4 371.9,-193.3 390.5,-161.1 			"/>
			<polygon class="st2" points="334.7,-128.8 334.7,0 279,-32.2 223.2,-64.4 223.2,-193.3 279,-96.6 334.7,-128.8 			"/>
			<polygon class="st3" points="334.7,-257.7 334.7,-128.8 279.1,-96.7 279,-96.7 279,-96.6 223.2,-193.1 223.2,-193.3 
				223.2,-193.3 223.2,-193.2 279,-161.1 297.5,-193.3 306.9,-209.4 			"/>
		</g>
		<g>
			<polygon class="st4" points="223.1,-193.3 223.1,-193.2 167.4,-161.1 148.8,-193.3 139.5,-209.4 111.6,-257.7 223,-193.4 			"/>
			<polygon class="st1" points="223.1,-193.2 223.1,-64.6 167.3,-32.5 167.3,-96.8 167.3,-96.8 167.2,-96.7 111.6,-64.6 
				111.6,-64.6 56,-96.7 55.8,-96.8 55.8,-96.8 55.8,-32.5 0.1,-64.6 0.1,-193.2 55.8,-161.1 74.4,-193.3 83.7,-209.4 111.6,-257.7 
				139.5,-209.4 148.8,-193.3 167.4,-161.1 			"/>
			<polygon class="st2" points="111.6,-128.8 111.6,0 55.8,-32.2 0,-64.4 0,-193.3 55.8,-96.6 111.6,-128.8 			"/>
			<polygon class="st3" points="223.2,-193.3 223.2,-64.4 167.4,-32.2 111.6,0 111.6,-128.8 167.4,-96.6 			"/>
			<polygon class="st2" points="223.2,-193.3 223.2,-193.3 223.1,-193.1 167.4,-96.6 167.3,-96.7 167.2,-96.7 111.6,-128.8 
				111.6,-128.8 111.6,-128.8 111.6,-257.7 139.5,-209.4 148.8,-193.3 167.4,-161.1 223.1,-193.2 			"/>
		</g>
		<g>
			<polygon class="st4" points="334.7,-386.6 334.7,-386.5 279,-354.3 260.4,-386.5 251.1,-402.6 223.2,-450.9 334.6,-386.6 			"/>
			<polygon class="st1" points="223.2,-450.9 195.3,-402.6 186,-386.5 167.4,-354.3 111.7,-386.5 111.7,-386.6 111.7,-386.6 			"/>
			<polygon class="st1" points="334.7,-386.5 334.7,-257.9 278.9,-225.7 278.9,-290.1 278.9,-290.1 278.8,-290 223.2,-257.9 
				223.2,-257.9 167.6,-290 167.4,-290.1 167.4,-290.1 167.4,-225.7 111.7,-257.9 111.7,-386.5 167.4,-354.3 186,-386.5 
				195.3,-402.6 223.2,-450.9 251.1,-402.6 260.4,-386.5 279,-354.3 			"/>
			<polygon class="st2" points="223.2,-322.1 223.2,-193.3 167.4,-225.5 111.6,-257.7 111.6,-386.5 167.4,-289.9 223.2,-322.1 			
				"/>
			<polygon class="st3" points="223.2,-450.9 223.2,-322.1 167.6,-290 167.4,-289.9 167.4,-289.9 111.7,-386.4 111.6,-386.5 
				111.6,-386.5 111.7,-386.5 167.4,-354.3 186,-386.5 195.3,-402.6 			"/>
			<polygon class="st3" points="334.7,-386.5 334.7,-257.7 279,-225.5 223.2,-193.3 223.2,-322.1 278.9,-289.9 			"/>
			<polygon class="st2" points="334.7,-386.5 334.7,-386.5 334.7,-386.4 278.9,-289.9 278.9,-289.9 278.8,-290 223.2,-322.1 
				223.2,-322.1 223.2,-322.1 223.2,-450.9 251.1,-402.6 260.4,-386.5 279,-354.3 334.7,-386.5 			"/>
		</g>
		<g>
			<polygon class="st1" points="446.2,-579.7 446.2,-451.2 390.5,-419 390.5,-483.4 390.5,-483.4 390.3,-483.3 334.7,-451.2 
				334.7,-451.2 279.1,-483.3 279,-483.4 279,-483.4 279,-419 223.2,-451.2 223.2,-579.7 279,-547.6 297.5,-579.8 306.9,-595.9 
				334.7,-644.2 362.6,-595.9 371.9,-579.8 390.5,-547.6 			"/>
			<polygon class="st2" points="334.7,-515.4 334.7,-386.5 279,-418.7 223.2,-451 223.2,-579.8 279,-483.2 334.7,-515.4 			"/>
			<polygon class="st3" points="334.7,-644.2 334.7,-515.4 279.1,-483.3 279,-483.2 279,-483.2 223.2,-579.6 223.2,-579.8 
				223.2,-579.8 223.2,-579.7 279,-547.6 297.5,-579.8 306.9,-595.9 			"/>
		</g>
		<g>
			<polygon class="st1" points="223.1,-579.7 223.1,-451.2 167.3,-419 167.3,-483.4 167.3,-483.4 167.2,-483.3 111.6,-451.2 
				111.6,-451.2 56,-483.3 55.8,-483.4 55.8,-483.4 55.8,-419 0.1,-451.2 0.1,-579.7 55.8,-547.6 74.4,-579.8 83.7,-595.9 
				111.6,-644.2 139.5,-595.9 148.8,-579.8 167.4,-547.6 			"/>
			<polygon class="st2" points="111.6,-515.4 111.6,-386.5 55.8,-418.7 0,-451 0,-579.8 55.8,-483.2 111.6,-515.4 			"/>
			<polygon class="st3" points="223.2,-579.8 223.2,-451 167.4,-418.7 111.6,-386.5 111.6,-515.4 167.4,-483.2 			"/>
			<polygon class="st2" points="223.2,-579.8 223.2,-579.8 223.1,-579.6 167.4,-483.2 167.3,-483.2 167.2,-483.3 111.6,-515.4 
				111.6,-515.4 111.6,-515.4 111.6,-644.2 139.5,-595.9 148.8,-579.8 167.4,-547.6 223.1,-579.7 			"/>
		</g>
	</g>
</pattern>
<g id="Слой_1">
	<rect class="st5" width="223.2" height="386.5"/>
</g>
<g id="Слой_2">
</g>
</svg>
